<?xml version="1.0" standalone="no"?>
<!DOCTYPE svg PUBLIC "-//W3C//DTD SVG 20010904//EN"
 "http://www.w3.org/TR/2001/REC-SVG-20010904/DTD/svg10.dtd">
<svg version="1.0" xmlns="http://www.w3.org/2000/svg"
 width="1125.000000pt" height="676.000000pt" viewBox="0 0 1125.000000 676.000000"
 preserveAspectRatio="xMidYMid meet">

<g transform="translate(0.000000,676.000000) scale(0.100000,-0.100000)"
fill="#000000" stroke="none">
<path d="M6656 6384 c-21 -8 -54 -28 -73 -44 -18 -17 -44 -30 -57 -30 -18 0
-25 -7 -29 -30 -6 -29 -18 -35 -61 -31 -14 1 -17 -4 -13 -19 5 -18 -25 -70
-46 -79 -19 -8 -57 -49 -57 -62 0 -11 -13 -13 -55 -11 -31 2 -61 -1 -68 -6
-13 -11 -104 -2 -138 12 -10 4 -20 3 -24 -3 -8 -14 -62 -14 -71 0 -3 6 -17 8
-29 5 -13 -3 -27 -2 -30 4 -3 6 -16 8 -28 5 -16 -4 -35 6 -72 40 -29 26 -60
45 -73 45 -27 0 -37 8 -112 81 -31 30 -76 63 -101 73 -24 10 -49 22 -55 27 -7
5 -42 12 -78 16 -68 6 -134 -7 -166 -33 -8 -7 -31 -19 -50 -28 -19 -8 -53 -27
-75 -41 -22 -13 -47 -28 -55 -32 -8 -4 -35 -21 -60 -37 -25 -17 -52 -29 -61
-28 -11 2 -20 -8 -27 -26 -7 -21 -19 -31 -40 -35 -16 -3 -43 -17 -60 -32 -18
-15 -37 -23 -46 -19 -9 4 -18 0 -22 -9 -3 -9 -12 -13 -20 -10 -8 3 -25 -3 -37
-14 -12 -10 -34 -24 -49 -31 -16 -6 -28 -16 -28 -22 0 -5 -17 -10 -38 -10 -26
0 -45 -7 -56 -19 -10 -10 -37 -24 -60 -30 -24 -6 -49 -17 -56 -26 -7 -8 -25
-15 -40 -15 -15 0 -42 -10 -61 -23 -19 -13 -63 -33 -99 -47 -36 -13 -72 -29
-80 -35 -8 -7 -33 -19 -55 -26 -22 -7 -47 -18 -55 -25 -8 -6 -38 -22 -67 -34
-29 -12 -59 -33 -68 -46 -20 -31 -33 -30 -45 1 -8 22 -13 24 -29 15 -11 -5
-27 -20 -35 -31 -10 -14 -20 -19 -34 -15 -13 4 -22 1 -26 -9 -3 -8 -12 -15
-20 -15 -18 0 -40 36 -31 50 8 13 2 13 -30 -2 -29 -13 -33 -45 -7 -64 16 -12
16 -13 -2 -20 -10 -4 -34 -1 -53 5 -31 12 -38 11 -62 -7 -15 -11 -41 -23 -59
-27 -18 -4 -38 -15 -45 -26 -6 -10 -23 -19 -37 -19 -14 0 -34 -7 -44 -15 -11
-8 -29 -15 -39 -15 -11 0 -25 -8 -32 -17 -7 -10 -26 -18 -41 -19 -82 -3 -85
-4 -94 -29 -8 -22 -12 -23 -41 -13 -17 6 -34 19 -36 29 -8 29 -23 22 -23 -9 0
-21 -7 -33 -26 -43 -23 -12 -27 -12 -40 6 -14 19 -14 19 -29 -1 -8 -10 -17
-27 -20 -36 -9 -25 -32 -22 -39 4 -4 18 -8 20 -18 10 -6 -6 -20 -12 -30 -12
-13 0 -18 -8 -18 -28 0 -35 -9 -45 -26 -31 -10 8 -25 4 -61 -20 -27 -16 -55
-36 -63 -44 -45 -40 -110 -62 -110 -37 0 6 -8 10 -17 10 -13 0 -14 -3 -5 -8
16 -11 -12 -71 -37 -78 -9 -3 -24 -10 -33 -15 -22 -11 -48 -12 -48 -1 0 5 -16
16 -35 25 -26 13 -35 23 -35 42 0 21 5 25 29 25 22 0 31 -6 41 -30 10 -23 19
-30 40 -30 15 0 33 7 40 15 19 23 4 45 -31 45 -18 0 -40 6 -48 14 -9 7 -33 16
-53 20 -33 6 -38 4 -38 -12 0 -11 -7 -25 -15 -32 -17 -14 -20 -67 -5 -72 20
-6 -21 -47 -53 -53 -47 -9 -107 18 -107 49 0 24 -24 41 -41 30 -15 -9 -11 -74
6 -80 8 -4 15 -15 15 -25 0 -17 -3 -18 -20 -7 -16 10 -24 10 -41 -1 -30 -18
-47 7 -20 30 25 21 35 57 21 74 -19 23 -39 18 -46 -12 -3 -16 -15 -47 -26 -69
-22 -46 -62 -63 -99 -43 -11 5 -25 7 -32 3 -8 -5 -7 -2 2 9 9 11 10 17 2 17
-6 0 -11 17 -11 40 l0 41 24 -24 c12 -13 26 -30 29 -38 3 -8 6 2 6 22 1 25 -4
39 -15 43 -11 4 -14 17 -12 48 3 46 28 67 28 24 0 -16 6 -26 15 -26 8 0 15 7
15 15 0 8 4 15 9 15 5 0 11 18 13 40 4 43 -10 52 -41 28 -11 -9 -49 -12 -128
-10 -101 3 -113 5 -118 23 -8 26 -52 26 -60 0 -3 -11 -15 -23 -27 -27 -18 -5
-18 -8 -6 -21 12 -11 20 -12 41 -2 21 9 30 9 42 -1 8 -7 15 -16 15 -21 0 -9
-66 -5 -110 6 -19 5 -33 -1 -57 -23 -18 -16 -33 -34 -33 -40 0 -23 -72 -13
-112 14 -21 15 -55 29 -75 31 -42 4 -53 16 -53 56 0 34 -16 35 -46 1 -36 -38
-31 -54 16 -54 36 0 40 -3 40 -24 0 -13 3 -31 6 -40 4 -11 0 -16 -11 -16 -10
0 -24 -8 -31 -17 -12 -17 -14 -17 -33 4 -12 12 -21 29 -21 37 0 7 -7 16 -15
20 -8 3 -15 16 -15 30 0 30 -27 59 -47 52 -9 -4 -17 1 -20 14 -3 11 -9 20 -14
20 -12 0 -11 -27 1 -35 6 -3 10 -23 10 -43 -1 -31 -3 -34 -13 -22 -7 8 -19 21
-28 27 -14 11 -16 7 -18 -34 -1 -26 -5 -49 -9 -53 -5 -3 -12 -13 -15 -23 -4
-10 -13 -17 -20 -14 -17 6 -10 127 9 148 19 21 18 24 -12 44 -24 15 -27 15
-51 0 -31 -20 -38 -14 -35 30 2 31 0 35 -21 35 -29 0 -47 18 -47 47 0 16 -6
23 -20 23 -15 0 -20 -7 -20 -25 0 -16 6 -25 15 -25 18 0 19 -11 2 -34 -12 -16
-14 -16 -40 4 -38 30 -71 23 -75 -15 -6 -47 -16 -53 -85 -49 -34 1 -97 3 -139
3 -62 1 -78 4 -78 16 0 12 16 15 88 15 49 0 93 -5 99 -11 7 -7 12 -4 16 14 4
13 18 29 32 35 22 10 24 14 13 32 -11 16 -16 18 -33 7 -13 -8 -53 -11 -118 -9
l-97 3 0 29 c0 27 1 28 74 35 49 4 82 3 95 -5 25 -13 51 -3 30 11 -11 7 -11 9
2 9 9 0 30 3 46 6 25 5 35 0 60 -26 17 -18 36 -30 42 -26 15 9 14 49 -1 64
-17 17 -128 15 -164 -2 -39 -19 -207 -26 -192 -8 15 17 -11 16 -31 -2 -11 -10
-32 -12 -69 -9 -42 5 -52 9 -52 24 0 16 8 19 50 19 36 0 50 4 50 14 0 7 14 19
30 26 22 9 30 19 30 37 0 21 -3 23 -22 17 -13 -3 -31 -15 -41 -25 -23 -24
-105 -27 -113 -4 -7 16 -44 21 -44 5 0 -5 9 -14 19 -20 19 -9 19 -50 1 -50
-20 0 -40 13 -40 26 0 8 -8 14 -17 14 -10 0 -28 3 -40 6 -20 6 -23 3 -23 -25
0 -24 4 -31 19 -31 25 0 36 -17 22 -34 -11 -13 3 -36 22 -36 5 0 15 -7 23 -15
22 -21 8 -115 -16 -115 -15 0 -17 6 -13 41 6 43 -4 59 -39 59 -15 0 -18 -9
-18 -44 0 -26 5 -46 13 -49 9 -4 9 -6 0 -6 -8 -1 -13 -15 -13 -35 0 -30 2 -33
25 -28 27 5 33 -10 15 -38 -8 -12 -10 -12 -16 3 -20 52 -24 -18 -24 -403 0
-304 3 -420 11 -420 8 0 8 -4 0 -14 -18 -21 -14 -981 4 -996 18 -15 29 3 21
35 -3 13 -2 26 3 29 10 6 21 -16 21 -42 0 -9 18 -28 40 -42 47 -29 54 -54 12
-44 -15 4 -30 11 -33 16 -3 6 -9 1 -12 -11 -6 -25 0 -31 30 -31 22 0 23 -3 23
-69 0 -38 -5 -82 -10 -97 -14 -35 -7 -41 26 -19 22 14 28 15 35 4 5 -8 2 -23
-6 -36 -8 -12 -15 -33 -15 -47 0 -14 -4 -28 -10 -31 -5 -3 -13 -20 -18 -38 -6
-25 -15 -33 -37 -37 -21 -4 -31 -12 -35 -30 -4 -16 -14 -26 -28 -28 -21 -3
-22 -8 -22 -99 l0 -95 38 6 c44 8 104 10 187 6 69 -3 95 5 95 29 1 14 3 13 15
-3 11 -14 22 -17 45 -13 23 5 35 2 47 -13 21 -25 39 -25 54 -2 9 15 29 17 160
17 98 0 152 -4 157 -11 15 -23 53 -34 116 -34 37 0 66 4 66 10 0 17 30 11 57
-10 32 -25 44 -25 85 0 30 18 34 18 50 3 14 -12 23 -13 45 -5 44 17 67 19 78
5 8 -10 28 -11 94 -3 70 8 90 7 115 -5 16 -9 32 -12 35 -8 3 5 17 9 31 11 14
1 26 7 28 12 2 6 23 10 47 10 34 0 44 4 48 20 8 29 -4 32 -90 21 -42 -5 -84
-6 -93 -2 -33 17 -77 20 -98 5 -25 -17 -46 -10 -60 22 -12 26 -24 29 -50 15
-24 -13 -80 9 -121 47 -40 39 -51 40 -51 6 0 -25 -2 -26 -35 -20 -36 7 -48 -7
-25 -30 7 -7 5 -17 -4 -30 -8 -10 -18 -16 -22 -12 -4 4 -2 14 5 22 9 11 8 15
-4 20 -8 3 -20 17 -25 31 -5 14 -16 25 -25 25 -8 0 -25 11 -37 25 -27 31 -69
35 -61 6 3 -11 22 -36 44 -55 54 -51 31 -92 -28 -51 -12 8 -30 12 -40 9 -13
-4 -15 -3 -4 4 10 7 7 12 -15 20 -16 6 -23 11 -16 11 17 1 15 30 -3 37 -25 10
-17 34 15 45 24 9 30 17 30 39 0 23 6 30 34 40 18 6 42 20 51 30 10 12 31 20
48 20 59 0 16 14 -51 16 -92 4 -105 -1 -97 -36 6 -26 3 -30 -27 -38 -27 -7
-34 -14 -36 -38 -2 -16 -8 -33 -13 -38 -13 -14 -48 22 -42 44 3 10 -2 29 -11
42 -22 30 -20 41 4 28 11 -6 20 -17 20 -25 0 -17 26 -20 35 -5 3 6 6 28 7 49
0 38 2 40 39 46 24 4 39 12 39 21 0 8 9 14 20 14 12 0 32 11 46 25 30 30 30
30 59 6 28 -21 17 -41 -22 -41 -28 0 -30 -16 -4 -30 34 -17 102 21 71 40 -9 6
-9 9 0 15 6 4 17 -1 24 -11 11 -14 22 -16 61 -11 37 5 52 3 65 -8 10 -9 40
-18 68 -19 l51 -4 -5 83 c-4 64 -2 91 11 114 8 17 19 31 24 31 4 0 20 21 34
48 14 26 35 53 47 60 21 13 21 14 36 -37 4 -11 8 -10 24 4 17 15 24 16 46 7
39 -18 52 -15 47 12 -5 24 17 50 25 28 2 -6 19 -16 39 -23 36 -11 41 -9 57 26
3 6 9 3 15 -5 37 -56 36 -56 65 -23 15 17 36 33 46 36 16 4 17 2 8 -19 -9 -18
-8 -28 0 -36 8 -8 19 -3 43 20 29 29 68 45 55 24 -3 -5 2 -18 10 -30 l15 -21
51 20 c27 11 58 17 68 14 9 -3 23 1 30 10 15 19 30 19 30 1 0 -7 14 -28 31
-45 31 -33 59 -36 59 -6 0 8 5 15 11 15 6 0 8 -7 5 -16 -14 -35 9 -50 82 -52
41 -2 73 2 77 8 11 17 44 11 55 -10 6 -12 21 -20 36 -20 14 0 35 -9 47 -21 16
-15 30 -19 53 -14 18 3 43 1 56 -5 17 -8 46 -8 93 -2 68 9 71 8 112 -19 23
-16 45 -29 48 -29 4 0 18 -9 32 -20 14 -11 33 -20 43 -20 9 0 29 -11 45 -25
15 -15 32 -24 37 -23 6 2 24 -9 40 -24 17 -15 38 -28 47 -28 9 0 36 -17 60
-38 24 -20 57 -42 72 -49 26 -11 32 -8 79 29 39 31 56 39 75 34 21 -5 25 -3
25 14 0 23 26 38 40 24 15 -15 -51 -90 -75 -86 -18 3 -18 1 3 -16 l24 -18 -26
-39 c-14 -21 -26 -42 -26 -46 0 -5 -5 -9 -11 -9 -6 0 -50 -39 -97 -86 -52 -52
-97 -87 -113 -91 -21 -4 -30 -13 -35 -37 -3 -17 -21 -43 -40 -59 -24 -21 -34
-37 -34 -58 0 -16 -8 -37 -18 -47 -9 -9 -24 -37 -31 -62 -14 -44 -74 -181 -92
-210 -22 -37 -31 -70 -34 -138 -3 -39 -8 -80 -14 -90 -5 -9 -12 -37 -16 -62
-7 -44 -27 -85 -51 -105 -7 -6 -15 -38 -18 -70 -3 -33 -10 -80 -15 -105 -10
-48 -83 -204 -101 -215 -5 -3 -10 -17 -10 -30 0 -13 -7 -30 -15 -39 -8 -8 -15
-21 -15 -30 0 -8 -5 -18 -10 -21 -5 -3 -10 -14 -10 -24 0 -10 -7 -24 -15 -31
-9 -7 -14 -19 -11 -26 3 -7 -20 -38 -50 -68 -50 -50 -55 -59 -49 -87 8 -37 29
-47 50 -25 9 9 23 16 31 16 8 0 19 12 25 27 7 20 13 23 21 15 17 -17 33 -15
18 3 -6 8 -9 23 -5 35 5 16 16 20 53 22 54 2 92 4 108 6 6 1 23 14 38 29 38
38 60 40 51 5 -4 -15 -6 -38 -5 -52 1 -14 2 -75 3 -137 2 -102 4 -113 26 -137
25 -27 24 -45 -9 -161 -6 -22 -14 -53 -17 -68 l-5 -28 43 38 c23 21 48 45 55
53 65 76 164 161 210 182 16 7 44 28 62 46 18 17 36 32 41 32 4 0 17 11 29 25
29 34 57 20 66 -32 7 -41 37 -113 47 -113 4 0 25 -19 48 -41 36 -37 41 -47 41
-89 0 -48 16 -110 29 -110 4 0 17 9 28 19 12 11 23 18 25 15 3 -2 15 7 28 21
13 14 32 25 42 25 12 0 18 7 18 24 0 32 16 42 29 18 6 -11 9 -21 6 -23 -2 -2
38 -4 88 -3 96 0 167 18 167 41 0 7 15 22 33 33 17 11 29 20 24 20 -4 0 0 11
9 25 21 32 34 32 34 1 0 -34 17 -41 31 -14 21 39 71 97 89 103 10 3 23 18 29
33 7 16 25 36 42 46 l30 18 -24 31 c-33 43 -43 90 -22 107 8 7 15 20 14 29 0
10 -2 11 -6 4 -3 -10 -9 -9 -20 3 -11 10 -16 32 -15 62 0 49 -14 102 -29 102
-4 0 -13 19 -19 42 -7 23 -25 54 -41 69 -35 32 -36 41 -7 79 18 25 20 33 10
55 -16 34 -5 75 19 75 20 0 36 -40 24 -60 -4 -6 -1 -17 5 -26 14 -16 40 -2 40
22 0 8 3 13 8 13 33 -5 52 3 58 26 3 14 14 31 23 38 10 6 20 20 24 30 9 25 38
33 49 14 12 -22 40 -10 33 14 -9 26 17 34 71 22 34 -8 46 -7 55 3 9 11 28 12
79 8 l67 -7 13 49 c8 27 21 54 29 61 11 9 12 13 4 14 -23 3 -28 4 -48 17 -15
10 -16 15 -7 19 7 3 17 16 22 29 12 32 26 30 38 -3 14 -38 39 -70 48 -61 4 5
0 16 -10 27 -14 16 -15 20 -2 30 8 7 26 9 43 6 l28 -6 -27 21 c-39 30 -37 60
3 60 22 0 32 5 36 20 4 15 14 20 39 20 47 0 46 -27 -1 -36 -24 -4 -35 -12 -35
-24 0 -16 4 -17 41 -6 22 7 43 17 47 22 4 5 19 17 35 27 15 10 27 24 27 33 0
10 6 13 18 10 9 -3 33 -7 52 -8 23 -2 43 -12 61 -32 24 -27 29 -29 60 -20 l34
10 -52 25 c-29 13 -53 29 -53 35 0 18 -53 50 -58 36 -7 -21 -42 -14 -42 8 0
16 -7 20 -36 20 -19 0 -33 4 -29 9 10 18 -36 23 -60 7 -31 -20 -54 -20 -76 0
-11 10 -23 13 -31 8 -7 -5 -29 -9 -48 -11 -19 -1 -57 -4 -84 -8 -38 -5 -52 -2
-68 12 -19 17 -43 20 -171 25 -22 1 -36 6 -34 12 2 6 -2 24 -10 39 -8 16 -13
30 -11 31 36 27 55 34 78 30 17 -4 31 0 39 10 8 9 10 16 5 16 -5 0 1 7 13 15
21 14 52 23 163 45 25 5 60 12 78 16 19 4 45 1 63 -7 27 -11 33 -10 43 3 6 9
21 13 36 11 14 -3 41 -6 60 -7 19 -1 41 -5 48 -10 7 -4 34 -5 60 -1 40 5 51 3
66 -14 11 -12 14 -21 8 -21 -7 0 -12 -4 -12 -10 0 -5 16 -10 35 -10 18 0 38
-6 42 -12 13 -21 73 -59 83 -53 5 3 20 -6 34 -20 14 -14 29 -25 34 -25 6 0 13
-11 16 -25 4 -16 13 -25 26 -25 39 0 37 48 -3 69 -20 10 -20 11 8 5 17 -3 49
-8 73 -11 36 -4 42 -8 42 -29 0 -28 12 -31 31 -8 8 10 22 14 41 10 15 -3 30
-1 33 4 12 19 42 10 53 -16 7 -14 16 -23 21 -19 18 11 119 -21 236 -75 44 -20
107 -42 140 -49 33 -7 75 -18 93 -23 18 -5 54 -10 80 -11 26 -1 52 -5 57 -9 6
-4 17 -3 24 2 8 4 40 5 72 3 35 -4 70 -1 88 6 24 10 34 10 59 -3 17 -9 49 -16
71 -16 22 0 43 -5 46 -10 7 -11 58 -14 68 -3 4 3 1 13 -7 22 -27 31 -34 85
-23 176 l10 88 -27 24 c-15 13 -32 21 -37 18 -5 -4 -9 -2 -9 4 0 10 -79 51
-99 51 -6 0 -26 14 -44 30 -19 17 -39 30 -45 30 -6 0 -32 20 -59 45 -26 25
-55 45 -65 45 -10 0 -18 4 -18 9 0 5 -25 26 -56 46 -30 20 -58 43 -61 51 -3 8
-19 14 -40 14 -27 0 -37 -6 -51 -30 -9 -16 -23 -30 -30 -30 -7 0 -16 -8 -19
-17 -13 -37 -32 -40 -63 -13 -29 25 -54 22 -58 -7 -3 -23 -41 -38 -72 -28 -9
3 -30 1 -45 -5 -22 -8 -31 -7 -46 6 -24 22 -66 84 -74 112 -5 19 -3 22 19 22
14 0 26 -4 26 -10 0 -5 5 -10 10 -10 6 0 10 14 10 31 0 43 28 97 53 105 35 10
66 45 73 80 6 32 8 33 50 32 32 -2 46 -7 50 -20 3 -10 10 -19 15 -19 17 -3 24
-5 69 -26 25 -12 56 -23 70 -25 21 -2 25 1 26 22 0 14 6 38 12 53 7 16 12 39
12 53 0 34 23 114 32 114 5 0 8 15 6 33 -2 44 31 117 54 117 10 0 18 -4 18 -8
0 -5 21 -24 48 -42 26 -19 50 -39 54 -44 4 -6 8 -50 8 -98 l0 -87 44 -37 c56
-47 63 -76 26 -117 -30 -33 -50 -30 -50 9 0 13 -5 24 -11 24 -12 0 -3 -51 10
-60 4 -3 17 -22 30 -42 16 -27 30 -38 47 -38 15 0 24 -6 24 -16 0 -13 3 -14
13 -5 10 8 19 7 33 -4 10 -8 28 -15 38 -15 11 0 37 -12 58 -27 39 -26 39 -26
120 -14 45 7 92 20 105 28 20 13 30 14 63 4 22 -6 42 -16 45 -21 16 -26 5 -76
-33 -152 -35 -72 -41 -94 -45 -166 -2 -45 -9 -88 -15 -94 -15 -15 -15 -25 1
-25 6 0 22 -3 35 -7 13 -5 22 -3 22 3 0 6 11 21 25 33 27 24 32 61 14 102 -10
20 -9 30 5 51 9 14 21 23 26 20 6 -4 10 1 10 9 0 8 12 21 27 28 19 9 30 27 41
63 7 28 22 58 33 68 26 25 52 77 38 77 -6 0 -9 6 -6 13 2 6 -6 28 -18 48 -20
31 -21 38 -10 65 15 32 61 84 75 84 6 0 10 13 10 30 0 19 7 33 19 40 11 5 23
20 27 32 3 12 13 28 20 36 20 19 17 27 -11 40 -14 6 -25 18 -25 26 0 7 -10 20
-22 29 l-23 15 30 12 c55 22 60 27 63 61 2 19 8 38 13 44 5 5 9 18 9 30 0 12
5 26 11 32 8 8 8 17 0 31 -20 38 -11 57 61 127 39 39 79 89 90 112 10 23 23
45 28 48 6 3 10 13 10 22 0 9 17 36 38 61 20 25 40 50 43 55 4 5 15 5 28 -2
28 -15 28 -72 1 -125 -10 -21 -22 -58 -26 -82 -3 -24 -10 -44 -14 -44 -8 0
-22 -21 -95 -150 -21 -36 -40 -67 -44 -70 -32 -24 -70 -128 -60 -164 5 -17 4
-35 -3 -46 -9 -14 -9 -22 1 -34 11 -13 9 -17 -15 -28 l-29 -12 25 -4 c29 -4
52 -22 29 -22 -14 0 -36 -51 -43 -100 -4 -27 -52 -74 -67 -65 -5 4 -9 1 -9 -4
0 -6 -9 -11 -19 -11 -23 0 -36 -16 -21 -25 15 -10 12 -35 -5 -35 -8 0 -15 -8
-15 -18 0 -10 -3 -21 -6 -25 -3 -3 -7 -57 -8 -119 -2 -91 -7 -124 -25 -168
-42 -103 -42 -100 -26 -100 8 0 15 7 15 15 0 8 7 15 15 15 8 0 27 11 42 25 75
66 111 95 122 95 16 0 33 50 27 76 -3 12 -14 24 -24 26 -22 6 -62 -8 -62 -22
0 -5 -11 -10 -25 -10 -18 0 -25 5 -25 20 0 10 6 23 13 27 7 4 18 20 24 36 7
15 19 27 27 27 9 0 21 10 27 22 7 13 15 25 18 28 19 15 70 101 82 135 7 22 20
49 29 60 32 39 80 122 80 137 0 9 7 21 15 28 8 7 15 21 15 31 0 10 4 20 9 23
5 3 14 30 21 58 6 29 15 62 19 73 15 37 33 90 38 110 4 19 24 66 44 107 5 10
9 29 9 43 0 14 6 28 14 31 7 3 21 23 31 45 17 37 21 39 62 39 36 0 43 3 43 19
0 38 54 36 64 -2 11 -41 7 -48 -19 -41 -15 4 -25 2 -25 -4 0 -6 -10 -12 -22
-14 -21 -3 -23 -8 -20 -58 14 -266 14 -287 -11 -337 -38 -77 -61 -118 -69
-121 -5 -2 -8 -9 -8 -17 0 -7 -7 -18 -16 -26 -9 -7 -13 -21 -10 -32 3 -13 -3
-26 -17 -38 -20 -16 -20 -18 -4 -24 29 -12 67 4 79 33 6 15 17 41 24 59 8 17
14 35 14 41 0 5 7 15 15 22 8 7 15 25 15 41 0 17 9 37 20 46 11 10 20 25 20
34 0 10 14 29 30 42 17 14 30 30 30 34 0 5 6 21 13 36 17 38 53 35 100 -8 35
-32 38 -33 35 -13 -2 15 2 23 12 23 8 0 16 -11 18 -25 2 -14 16 -38 31 -55 39
-43 55 -117 46 -217 -4 -44 -11 -75 -15 -68 -6 10 -9 9 -15 -1 -5 -8 3 -22 23
-40 30 -27 30 -29 16 -57 -8 -17 -26 -33 -39 -36 -14 -4 -25 -13 -25 -21 0 -8
-4 -15 -10 -15 -11 0 -13 -33 -4 -79 5 -21 12 -31 25 -31 15 0 19 7 19 36 0
36 0 36 36 29 20 -3 46 -11 59 -17 l24 -11 -27 -33 c-15 -19 -46 -43 -69 -54
-23 -11 -44 -27 -47 -37 -4 -13 -17 -19 -45 -20 -21 -1 -48 -9 -60 -19 -21
-19 -92 -44 -123 -44 -10 0 -18 7 -18 15 0 8 8 15 19 15 10 0 36 16 57 35 22
19 51 46 67 60 17 15 40 25 60 26 17 0 26 3 19 6 -7 3 -24 16 -38 30 -14 14
-31 22 -39 19 -7 -2 -19 2 -25 10 -7 8 -18 14 -26 14 -22 0 -44 41 -33 62 5
10 14 16 19 13 10 -6 27 69 33 142 4 56 -17 107 -50 120 -22 8 -73 -49 -73
-82 0 -18 -5 -25 -20 -25 -14 0 -20 -7 -20 -24 0 -13 -7 -29 -15 -36 -8 -7
-15 -20 -15 -30 0 -10 -7 -20 -15 -24 -8 -3 -15 -16 -15 -28 0 -13 -17 -45
-38 -72 -92 -120 -123 -164 -144 -206 -13 -25 -36 -56 -52 -70 -85 -71 -99
-86 -119 -124 -29 -56 -29 -67 -7 -98 20 -28 20 -28 0 -48 -11 -11 -20 -27
-20 -37 0 -9 3 -13 7 -10 3 4 12 2 20 -4 17 -15 46 7 38 30 -6 21 54 58 66 40
7 -11 32 -9 89 6 17 5 21 4 12 -3 -38 -26 105 -19 173 8 19 8 62 17 110 23 24
3 124 32 185 54 27 10 68 16 103 15 44 -2 57 1 57 11 0 23 29 42 42 29 15 -15
55 -16 63 -2 3 5 22 10 40 10 19 0 54 6 77 14 61 20 80 22 105 8 19 -10 24 -9
37 9 12 18 26 22 75 23 33 1 63 5 67 9 11 11 49 8 62 -5 8 -8 12 -8 12 -1 0 6
11 14 25 17 27 7 75 48 75 64 0 19 -18 23 -39 10 -18 -11 -23 -10 -35 7 -20
27 -20 32 4 38 15 4 20 14 20 41 0 33 -2 36 -30 36 -30 0 -31 -1 -24 -36 l7
-36 -32 16 c-40 21 -40 43 0 60 19 8 27 16 20 20 -14 9 7 32 35 38 25 4 31 38
9 54 -13 10 -14 16 -5 33 6 12 17 21 25 21 8 0 15 4 15 9 0 12 39 21 46 10 9
-15 24 -10 24 7 0 9 -15 29 -32 45 -34 30 -33 32 26 33 17 1 31 7 33 16 4 12
2 12 -5 2 -7 -10 -11 -10 -22 3 -11 13 -9 15 9 15 39 0 81 -28 81 -54 0 -19
65 -116 91 -136 3 -3 18 -29 33 -58 15 -29 48 -76 74 -103 43 -45 94 -121 108
-159 3 -8 10 -24 16 -35 7 -11 13 -51 15 -89 6 -110 77 -240 99 -181 4 8 1 22
-7 31 -13 16 -16 38 -23 159 -5 97 7 151 34 160 11 4 20 11 20 18 0 6 6 2 14
-9 8 -10 20 -19 28 -19 7 0 13 -11 13 -25 0 -14 -5 -24 -11 -23 -19 4 -26
-135 -10 -182 8 -22 11 -44 6 -49 -5 -4 -6 -24 -3 -43 5 -28 2 -35 -13 -39
-36 -9 -42 -44 -17 -93 13 -24 23 -50 23 -57 0 -7 5 -16 12 -20 18 -11 45 31
53 82 6 45 36 100 63 117 10 7 10 12 1 23 -9 11 -8 18 4 32 16 17 17 21 17 47
0 8 7 15 15 15 8 0 15 -5 15 -11 0 -6 9 -22 20 -36 11 -14 20 -33 20 -43 0
-25 26 -73 52 -97 43 -39 121 -35 86 4 -8 10 -21 56 -28 103 -17 124 -16 120
-55 179 -33 49 -37 62 -41 139 -5 95 -11 104 -79 121 -22 5 -59 14 -82 20 -23
6 -58 20 -78 32 -37 22 -125 122 -125 142 0 13 -14 30 -125 152 -42 47 -83 85
-90 85 -8 0 -27 11 -43 25 -17 14 -34 25 -40 25 -12 0 -22 24 -22 55 0 13 -11
46 -25 73 -14 28 -23 57 -19 65 3 10 -5 21 -25 33 -17 10 -44 37 -61 61 -17
24 -36 43 -41 43 -6 0 -17 15 -25 33 -9 17 -22 44 -30 60 -25 45 -25 64 1 81
28 18 61 21 70 6 3 -5 1 -10 -4 -10 -6 0 -11 -4 -11 -8 0 -9 3 -10 110 -61 37
-17 79 -45 95 -62 39 -40 101 -72 126 -64 14 5 28 -3 52 -31 49 -58 189 -194
198 -194 9 0 99 -178 99 -194 0 -9 7 -16 100 -95 41 -35 79 -74 83 -87 5 -13
13 -24 17 -24 20 0 80 -64 101 -107 21 -43 22 -51 10 -117 -27 -157 -24 -186
24 -301 56 -132 66 -192 40 -231 -9 -14 -14 -31 -11 -37 46 -91 74 -98 100
-27 10 27 16 56 13 64 -3 8 1 23 9 34 9 13 14 41 12 74 -1 29 -1 74 0 101 2
46 3 47 33 47 22 0 40 -10 65 -35 19 -20 34 -38 34 -42 0 -4 17 -22 37 -40 33
-30 41 -33 75 -28 39 7 50 21 24 31 -8 3 -13 11 -10 19 8 19 -25 111 -47 131
-10 9 -19 26 -19 36 0 11 -9 22 -20 25 -11 3 -17 9 -14 14 6 11 -35 48 -54 49
-7 0 -26 16 -43 35 -17 19 -37 35 -44 35 -8 0 -17 5 -20 10 -11 18 -15 119 -5
125 5 3 10 15 10 26 0 10 5 19 10 19 6 0 10 -4 10 -10 0 -5 11 -12 24 -16 18
-4 27 -15 32 -37 4 -18 24 -49 44 -69 21 -21 50 -63 66 -94 15 -31 38 -63 49
-72 12 -10 24 -25 28 -34 3 -10 11 -18 16 -18 14 0 49 -82 56 -134 6 -38 4
-46 -15 -59 -19 -13 -20 -19 -11 -53 6 -20 23 -49 38 -64 15 -14 33 -35 39
-45 6 -11 16 -16 26 -12 14 5 15 18 11 86 -5 61 -3 81 7 81 7 0 10 8 7 20 -3
10 1 24 9 31 16 13 19 81 5 125 -5 16 -12 41 -15 56 -4 19 -13 28 -26 28 -15
0 -20 7 -20 24 0 14 -5 28 -11 32 -7 4 -1 15 17 30 l27 24 24 -22 c20 -19 36
-23 88 -23 38 0 69 -5 77 -13 6 -6 24 -12 39 -12 15 0 32 -7 39 -15 7 -8 19
-15 27 -15 11 0 11 -4 3 -20 -15 -28 11 -37 57 -21 28 11 50 11 114 0 59 -9
85 -10 103 -1 14 6 41 8 60 5 l36 -6 0 418 c0 405 -1 418 -21 446 -11 16 -27
29 -34 29 -8 0 -19 9 -25 21 -9 16 -8 24 5 39 14 16 14 18 0 23 -12 5 -14 17
-9 62 5 37 3 55 -4 55 -6 0 -14 -4 -17 -10 -10 -17 -33 -11 -40 10 -4 13 -15
20 -30 20 -17 0 -29 9 -40 31 -28 54 -74 88 -76 57 0 -7 -6 -2 -12 12 -20 43
-50 82 -56 73 -10 -14 -31 -14 -31 0 0 7 -15 27 -33 45 -25 24 -42 32 -70 32
-25 0 -40 -5 -44 -16 -4 -11 -13 -14 -29 -10 -19 5 -27 1 -36 -19 -18 -40 -36
-29 -58 38 l-12 38 -56 -2 c-51 -3 -58 -1 -67 19 -12 27 -31 28 -47 2 -15 -24
-50 -26 -68 -5 -7 8 -9 15 -6 15 4 0 1 7 -8 15 -8 8 -19 15 -25 15 -16 0 -13
36 4 50 11 9 19 7 39 -13 14 -14 36 -27 48 -29 20 -3 23 2 26 35 2 23 8 37 17
37 7 0 16 9 20 19 3 10 17 22 30 25 14 4 25 13 25 21 0 8 4 15 10 15 5 0 7 7
4 15 -10 25 7 40 23 20 11 -16 13 -16 13 -3 0 24 29 43 60 40 21 -3 37 6 65
35 32 34 41 38 76 35 22 -3 39 0 39 6 0 6 8 12 17 14 15 3 13 7 -11 29 -18 17
-24 29 -17 33 6 4 9 11 6 16 -8 13 30 31 49 24 11 -4 13 -14 9 -35 -3 -16 -2
-29 3 -30 5 0 17 -2 27 -4 11 -2 17 3 18 16 1 10 3 24 4 29 1 6 3 22 4 36 1
16 8 28 20 31 14 3 18 13 17 34 -2 30 17 69 35 69 5 0 9 -9 9 -19 0 -32 11
-51 30 -51 20 0 30 19 30 55 0 25 19 46 21 23 1 -7 2 -20 3 -28 0 -8 8 -15 16
-15 12 0 14 12 12 57 -3 49 -1 59 15 65 10 4 24 13 31 20 11 11 11 14 -2 19
-22 9 -20 50 4 74 24 24 25 34 4 55 -11 11 -14 25 -11 45 5 20 2 30 -10 34
-11 5 -14 14 -9 40 4 20 2 37 -3 41 -6 3 -8 19 -4 36 7 35 -16 58 -59 59 -22
0 -29 6 -36 33 -7 24 -13 31 -28 28 -44 -9 -49 -6 -52 27 -3 30 4 37 31 33 8
-1 9 12 1 33 -5 12 -10 13 -30 4 -17 -8 -27 -8 -39 2 -12 10 -16 9 -21 -4 -10
-26 -23 -18 -22 14 1 16 7 31 15 34 22 9 15 36 -9 37 -13 1 -27 0 -33 -1 -5
-2 -28 -3 -50 -4 -41 -1 -46 7 -30 46 9 23 -47 58 -92 58 -31 0 -33 2 -33 36
0 36 -1 36 -32 30 -18 -4 -34 -10 -36 -15 -2 -5 -13 1 -26 12 -50 48 -73 62
-106 67 -26 4 -38 12 -48 33 -11 23 -16 25 -33 17 -10 -6 -19 -17 -19 -25 0
-9 -9 -15 -22 -15 -21 1 -22 2 -5 14 22 17 22 59 -2 80 -14 13 -17 26 -13 61
5 47 -3 56 -23 29 -9 -13 -16 -14 -33 -5 -11 6 -32 11 -45 11 -24 0 -24 -2
-16 -37 11 -49 11 -53 -1 -53 -5 0 -10 12 -10 28 0 47 -11 72 -31 72 -23 0
-25 15 -4 24 31 12 13 26 -33 26 -35 0 -52 5 -65 20 -9 11 -28 20 -41 20 -14
0 -31 9 -38 19 -9 13 -40 24 -101 36 -48 10 -87 21 -87 25 0 4 -9 10 -20 13
-27 7 -25 27 3 28 21 0 21 1 2 8 -11 5 -34 6 -51 4 -18 -3 -40 0 -50 6 -11 6
-13 11 -6 11 6 0 12 5 12 10 0 13 -36 13 -60 0 -15 -8 -20 -6 -25 9 -9 28 -67
46 -107 32 -40 -14 -41 -14 -34 5 15 40 -42 74 -63 37 -7 -14 -12 -15 -24 -5
-8 7 -28 14 -43 16 -16 3 -42 11 -59 20 -21 11 -43 14 -73 10 -43 -6 -73 6
-68 29 1 7 1 9 -1 5 -3 -5 -13 -8 -23 -8 -11 0 -24 -8 -30 -17 -11 -17 -11
-17 -6 0 5 15 -1 19 -24 19 -3 0 -15 -3 -26 -6 -14 -4 -28 -1 -39 10 -11 12
-19 14 -27 6 -11 -11 -45 2 -59 21 -4 5 -20 2 -37 -7 -43 -22 -61 -20 -73 8
-6 13 -22 26 -35 29 -28 5 -34 0 -34 -25 0 -11 -7 -18 -20 -18 -24 0 -27 28
-4 45 16 11 16 12 0 18 -9 4 -16 2 -16 -4 0 -7 -17 -9 -50 -4 -34 5 -50 3 -50
-4 0 -7 -24 -11 -64 -11 -42 0 -66 -4 -69 -12 -3 -8 -7 -6 -12 7 -15 39 -37
55 -75 55 -26 0 -43 7 -60 25 -13 14 -27 25 -31 25 -4 0 -20 5 -36 12 -69 28
-104 33 -114 17 -7 -12 -15 -11 -51 1 -35 12 -43 20 -44 40 -1 25 -20 70 -30
70 -13 0 -90 -45 -100 -57 -11 -16 -53 -14 -57 2 -1 6 10 11 26 13 15 2 27 9
27 15 0 7 9 20 20 30 11 9 20 21 20 27 0 12 -62 13 -75 1 -17 -15 -63 -22 -70
-10 -4 6 1 16 11 24 15 11 16 16 7 26 -10 10 -17 9 -33 -6 -25 -23 -31 -17
-32 34 0 23 -4 41 -9 41 -5 0 -9 -16 -9 -36 0 -33 -2 -35 -27 -32 -17 2 -29
10 -33 23 -15 58 -80 83 -128 49 -20 -13 -22 -14 -22 0 0 9 11 23 25 32 20 13
28 14 40 4 23 -19 57 -3 53 27 -3 29 -45 43 -54 19 -3 -8 -13 -12 -25 -9 -10
3 -25 1 -32 -5 -8 -7 -17 -6 -30 3 -21 15 -57 8 -74 -14 -10 -13 -15 -14 -32
-3 -25 14 -77 16 -86 2 -12 -20 -25 -9 -25 20 0 21 5 30 16 30 14 0 13 2 -2
17 -15 16 -17 16 -30 -2 -8 -11 -12 -25 -10 -32 6 -14 -28 -36 -38 -25 -4 4
-16 -4 -26 -18 l-20 -25 0 23 c0 15 -6 22 -20 22 -14 0 -20 -7 -20 -22 0 -17
-3 -19 -12 -10 -7 7 -17 12 -22 12 -6 0 -4 -5 4 -10 13 -8 12 -10 -2 -10 -10
0 -18 -4 -18 -10 0 -16 -27 -12 -34 5 -3 9 -18 15 -35 15 -16 0 -32 4 -35 9
-3 5 -17 11 -31 13 -21 4 -25 1 -25 -17 0 -30 -28 -54 -35 -31 -16 52 -17 52
-29 24 -11 -26 -12 -26 -35 38 -17 49 -30 68 -48 75 -13 5 -25 8 -26 8 -1 -1
-20 -8 -41 -15z m324 -133 c0 -10 -58 -23 -71 -15 -5 3 -7 10 -4 15 8 11 75
12 75 0z m380 -23 c0 -19 -1 -20 -12 -6 -7 9 -24 19 -38 21 -18 3 -14 5 13 6
32 1 37 -2 37 -21z m148 -47 c3 -8 -1 -12 -9 -9 -7 2 -15 10 -17 17 -3 8 1 12
9 9 7 -2 15 -10 17 -17z m62 4 c0 -8 -7 -15 -15 -15 -8 0 -15 7 -15 15 0 8 7
15 15 15 8 0 15 -7 15 -15z m397 -131 c8 -21 -13 -42 -28 -27 -13 13 -5 43 11
43 6 0 13 -7 17 -16z m-42 -54 c3 -11 3 -30 -1 -42 -7 -22 -7 -22 -15 -3 -11
28 -11 65 0 65 5 0 13 -9 16 -20z m195 -34 c-1 -5 4 -12 11 -16 8 -6 2 -13
-19 -24 -33 -17 -46 -9 -35 21 10 28 48 45 43 19z m90 -76 l20 -20 -25 0 c-18
0 -25 5 -25 20 0 11 2 20 5 20 3 0 14 -9 25 -20z m100 -10 c-20 -13 -40 -13
-40 0 0 6 12 10 28 10 21 0 24 -2 12 -10z m1223 -220 c4 -15 0 -20 -14 -20
-18 0 -26 20 -12 33 11 12 21 8 26 -13z m147 -94 c0 -2 -7 -6 -15 -10 -8 -3
-15 -1 -15 4 0 6 7 10 15 10 8 0 15 -2 15 -4z m-9538 -178 c-9 -9 -15 -9 -24
0 -9 9 -7 12 12 12 19 0 21 -3 12 -12z m10105 -120 c-3 -7 -5 -2 -5 12 0 14 2
19 5 13 2 -7 2 -19 0 -25z m-9517 -63 c0 -9 -7 -18 -16 -22 -18 -7 -39 11 -30
26 11 17 46 13 46 -4z m1030 -42 c0 -8 -13 -28 -30 -43 -26 -25 -30 -35 -30
-84 0 -52 2 -57 30 -71 17 -9 30 -20 30 -25 0 -12 48 -2 68 13 8 6 12 6 12 -1
0 -5 9 -12 20 -15 11 -3 20 -10 20 -15 0 -14 -32 -20 -55 -11 -29 11 -83 11
-90 -1 -3 -5 -17 -10 -30 -10 -13 0 -30 -7 -39 -15 -8 -8 -22 -15 -30 -15 -9
0 -16 7 -16 15 0 11 -11 15 -40 15 -23 0 -40 5 -40 11 0 9 -21 10 -74 6 -60
-5 -76 -4 -87 9 -9 11 -14 12 -20 3 -4 -6 -30 -14 -58 -17 -28 -2 -54 -9 -57
-13 -12 -21 -21 -6 -21 36 0 25 4 45 9 45 4 0 8 -7 8 -15 0 -10 11 -15 35 -15
19 0 35 5 35 10 0 6 -9 10 -20 10 -11 0 -20 4 -20 8 0 12 103 -3 128 -19 12
-7 24 -10 27 -7 12 12 -6 48 -24 48 -9 0 -22 5 -29 12 -9 9 -12 9 -12 0 0 -7
-9 -12 -21 -12 -12 0 -19 5 -17 13 6 15 118 23 118 7 0 -5 7 -10 15 -10 7 0
18 -6 22 -13 12 -22 56 -28 77 -11 24 17 48 18 64 2 8 -8 8 -15 1 -24 -24 -29
21 -45 62 -24 22 12 25 30 5 30 -8 0 -17 13 -21 30 -4 18 -17 35 -33 42 -36
18 -37 31 -2 66 16 17 30 39 30 50 0 26 3 28 54 24 33 -3 46 -8 46 -19z
m-1040 -13 c0 -5 -2 -10 -4 -10 -3 0 -8 5 -11 10 -3 6 -1 10 4 10 6 0 11 -4
11 -10z m116 -25 c6 -32 1 -55 -10 -44 -11 11 -17 79 -8 79 6 0 14 -16 18 -35z
m9612 23 c15 -15 16 -41 0 -36 -13 5 -31 48 -20 48 5 0 13 -5 20 -12z m73 -33
c0 -13 -41 -19 -41 -7 0 11 20 22 33 18 5 -1 8 -6 8 -11z m-9458 -26 c-4 -44
7 -67 34 -77 16 -6 23 -11 16 -11 -7 -1 -10 -8 -7 -16 10 -26 -23 -17 -42 13
-45 67 -56 106 -31 115 21 9 32 1 30 -24z m-811 -11 c-9 -9 -12 -7 -12 12 0
19 3 21 12 12 9 -9 9 -15 0 -24z m1283 20 c32 -15 27 -30 -14 -42 -40 -12 -58
2 -42 33 13 24 20 25 56 9z m265 -8 c0 -5 -9 -10 -20 -10 -11 0 -20 5 -20 10
0 6 9 10 20 10 11 0 20 -4 20 -10z m-493 -14 c14 -13 -9 -34 -42 -38 -39 -4
-52 8 -41 38 4 12 15 14 42 11 19 -3 38 -7 41 -11z m9287 -11 c3 -9 0 -15 -9
-15 -8 0 -15 7 -15 15 0 8 4 15 9 15 5 0 11 -7 15 -15z m-10484 -15 c0 -5 -8
-10 -17 -10 -15 0 -16 2 -3 10 19 12 20 12 20 0z m526 -100 c-14 -17 -26 -41
-26 -52 0 -22 -18 -20 -33 4 -15 24 -1 48 33 54 25 6 30 11 31 38 0 29 1 30
11 9 9 -18 6 -27 -16 -53z m130 55 c17 -16 14 -18 -10 -9 -9 3 -16 10 -16 15
0 13 9 11 26 -6z m9879 5 c3 -5 1 -10 -4 -10 -6 0 -11 5 -11 10 0 6 2 10 4 10
3 0 8 -4 11 -10z m-10437 -30 c4 -24 -21 -51 -37 -41 -20 13 -6 63 17 59 9 -2
18 -10 20 -18z m1552 10 c0 -5 -7 -7 -15 -4 -8 4 -15 8 -15 10 0 2 7 4 15 4 8
0 15 -4 15 -10z m-745 -19 c11 -19 -19 -62 -47 -68 -31 -6 -34 -13 -16 -31 9
-9 9 -12 0 -12 -7 0 -12 -7 -12 -16 0 -10 -7 -14 -22 -12 -18 2 -23 9 -23 30
1 27 1 27 -57 21 -40 -4 -58 -2 -58 6 0 6 13 11 29 11 30 0 57 22 47 38 -3 6
20 8 58 5 59 -5 64 -4 71 16 7 22 20 27 30 12z m-523 -51 c6 0 6 -6 -2 -15
-10 -12 -9 -16 4 -21 9 -3 16 -11 16 -16 0 -6 -10 -4 -22 4 -14 10 -22 24 -21
41 1 37 5 45 10 25 2 -10 9 -18 15 -18z m681 10 c4 -16 0 -20 -19 -21 -28 -2
-32 -3 -57 -14 -21 -9 -43 7 -33 24 4 6 22 11 41 11 19 0 37 5 40 10 10 16 22
12 28 -10z m-161 -55 c0 -5 -5 -11 -11 -13 -6 -2 -11 4 -11 13 0 9 5 15 11 13
6 -2 11 -8 11 -13z m-352 -12 c-1 -19 -19 -35 -34 -30 -26 10 -19 37 9 37 14
0 25 -3 25 -7z m-426 -19 c7 -18 0 -34 -15 -34 -5 0 -9 11 -9 25 0 28 15 34
24 9z m616 -28 c0 -18 -39 -31 -52 -18 -15 15 0 32 28 32 14 0 24 -6 24 -14z
m-284 -21 c8 -31 7 -31 -28 -40 -27 -7 -27 -6 -18 26 6 19 10 35 10 36 0 2 7
3 15 3 8 0 17 -11 21 -25z m189 15 c3 -5 1 -10 -4 -10 -6 0 -11 5 -11 10 0 6
2 10 4 10 3 0 8 -4 11 -10z m10150 -21 c-10 -15 -25 -10 -19 6 4 8 10 12 15 9
5 -3 7 -10 4 -15z m-10077 -43 c-3 -27 -6 -31 -32 -29 -40 3 -42 9 -16 36 32
34 52 31 48 -7z m-408 14 c0 -5 -4 -10 -10 -10 -5 0 -10 5 -10 10 0 6 5 10 10
10 6 0 10 -4 10 -10z m265 -10 c-3 -5 -12 -10 -20 -10 -8 0 -17 5 -20 10 -4 6
5 10 20 10 15 0 24 -4 20 -10z m-109 -13 c21 8 17 -15 -5 -26 -15 -8 -20 -7
-25 5 -3 9 -3 21 1 27 5 8 8 8 10 0 3 -7 11 -9 19 -6z m154 -15 c0 -4 -5 -13
-12 -20 -6 -6 -8 -15 -4 -19 4 -4 12 0 17 10 12 21 29 22 29 2 0 -23 -33 -35
-60 -22 -32 16 -34 30 -8 43 29 15 38 16 38 6z m8930 -2 c0 -5 -2 -10 -4 -10
-3 0 -8 5 -11 10 -3 6 -1 10 4 10 6 0 11 -4 11 -10z m-9420 -40 c0 -5 -5 -10
-11 -10 -5 0 -7 5 -4 10 3 6 8 10 11 10 2 0 4 -4 4 -10z m10830 -25 c11 -20
11 -27 0 -40 -28 -34 -58 -8 -46 40 8 32 29 32 46 0z m-10450 -51 c0 -8 -5
-12 -10 -9 -6 4 -8 11 -5 16 9 14 15 11 15 -7z m60 -45 c0 -16 -4 -19 -22 -13
-29 8 -31 10 -23 23 12 20 45 13 45 -10z m53 6 c7 -16 -8 -29 -23 -20 -15 9
-12 35 4 35 8 0 16 -7 19 -15z m-157 -45 c8 0 14 -7 14 -15 0 -10 -10 -15 -30
-15 -32 0 -39 17 -18 38 8 8 14 9 16 2 2 -5 10 -10 18 -10z m104 -4 c0 -11
-19 -15 -25 -6 -3 5 1 10 9 10 9 0 16 -2 16 -4z m-97 -71 c1 -5 -8 -11 -20
-13 -15 -2 -23 -10 -23 -22 0 -24 -11 -31 -38 -23 -25 6 -30 33 -7 33 8 0 19
9 25 21 12 21 58 24 63 4z m-123 -35 c8 -5 11 -12 8 -16 -10 -9 -38 3 -38 16
0 12 10 13 30 0z m10651 -49 c-16 -30 -31 -26 -31 7 0 36 10 46 28 28 11 -11
11 -18 3 -35z m-10976 -81 c3 -5 -1 -10 -9 -10 -9 0 -16 5 -16 10 0 6 4 10 9
10 6 0 13 -4 16 -10z m235 -15 c0 -8 -4 -15 -10 -15 -5 0 -10 7 -10 15 0 8 5
15 10 15 6 0 10 -7 10 -15z m-170 -80 c-32 -18 -40 -18 -40 0 0 10 10 15 33
15 l32 -1 -25 -14z m7527 -75 c7 0 21 -9 30 -20 10 -11 24 -20 31 -20 8 0 25
-10 37 -22 18 -18 22 -29 18 -58 -8 -47 -32 -76 -89 -106 -54 -29 -93 -57
-132 -95 -15 -14 -35 -29 -44 -32 -11 -4 -15 -12 -12 -22 6 -15 -62 -105 -158
-206 -54 -58 -78 -100 -60 -106 16 -6 15 -103 -2 -125 -17 -24 -36 -23 -36 1
0 10 -11 26 -25 35 -23 15 -27 15 -50 0 -13 -9 -34 -37 -46 -63 -11 -25 -33
-71 -47 -101 -15 -30 -26 -60 -24 -66 1 -6 -9 -16 -22 -24 -24 -12 -24 -14
-11 -41 22 -42 19 -48 -20 -42 -30 5 -34 3 -29 -11 3 -9 10 -16 15 -16 15 0
50 -40 44 -51 -4 -5 -11 -6 -18 -2 -12 7 -82 11 -319 15 -149 3 -169 6 -181
22 -13 18 -15 17 -34 -8 -12 -14 -27 -26 -33 -26 -9 0 -8 6 3 18 10 10 17 26
17 36 0 9 8 19 18 22 9 3 26 10 37 14 11 5 37 14 59 19 21 6 47 18 58 28 16
14 33 17 88 14 59 -2 69 0 74 16 4 12 17 20 36 21 28 2 30 0 24 -23 -5 -21 -3
-25 16 -25 15 0 25 9 33 30 6 17 15 30 20 30 4 0 5 5 2 10 -4 6 -1 18 6 26 7
9 12 37 12 63 -1 42 3 53 33 85 19 20 40 36 48 36 18 0 26 22 26 68 0 20 7 45
14 55 7 9 11 27 9 40 -4 21 -1 23 51 24 62 2 107 28 131 76 27 54 -27 115 -75
85 -16 -11 -23 -9 -40 10 -24 26 -27 26 -62 8 -23 -12 -28 -12 -28 -2 0 8 -17
16 -42 19 -25 3 -49 14 -59 26 -11 13 -23 18 -38 14 -11 -3 -31 1 -43 9 -31
20 -70 29 -82 19 -13 -10 -176 8 -193 21 -18 14 -4 38 22 38 15 0 25 -7 29
-22 5 -20 7 -21 18 -7 7 8 25 20 40 27 25 10 29 9 42 -16 15 -27 15 -27 16 -3
0 23 1 23 78 18 133 -10 176 -19 195 -38 14 -15 22 -17 37 -9 24 13 60 13 60
0 0 -5 8 -10 19 -10 10 0 24 -7 31 -15 7 -9 20 -13 30 -10 17 5 75 -19 86 -36
3 -5 22 -9 42 -8 20 1 48 -1 62 -5 21 -6 30 -1 49 26 14 18 30 37 38 41 15 9
17 43 3 52 -22 14 1 105 27 105 29 0 63 24 63 45 0 11 5 26 12 33 18 18 10
103 -13 128 -38 41 -18 46 23 6 23 -23 48 -42 55 -42z m-7597 55 c-12 -15 -30
-12 -30 6 0 5 10 9 21 9 18 0 19 -2 9 -15z m74 -81 c9 -3 16 -15 16 -25 0 -20
-19 -25 -35 -10 -6 5 -21 11 -34 13 -40 5 -38 28 2 28 20 0 42 -3 51 -6z m386
-19 c0 -16 -39 -60 -46 -52 -2 2 2 10 11 17 8 7 15 21 15 31 0 11 5 19 10 19
6 0 10 -7 10 -15z m-90 -21 c0 -2 -9 -4 -21 -4 -11 0 -18 4 -14 10 5 8 35 3
35 -6z m-100 -24 c0 -5 -5 -10 -11 -10 -5 0 -7 5 -4 10 3 6 8 10 11 10 2 0 4
-4 4 -10z m1250 0 c0 -5 -9 -10 -19 -10 -11 0 -23 5 -26 10 -4 6 5 10 19 10
14 0 26 -4 26 -10z m-60 -47 c0 -20 -18 -16 -30 7 -15 28 -1 49 17 25 7 -11
13 -25 13 -32z m9140 29 c0 -13 -12 -22 -22 -16 -10 6 -1 24 13 24 5 0 9 -4 9
-8z m-10588 -41 l22 -34 -40 7 c-21 4 -40 9 -41 9 -1 1 1 15 4 30 7 36 28 32
55 -12z m10516 -2 c-4 -28 -28 -38 -28 -11 0 11 3 28 6 37 9 23 27 3 22 -26z
m-10178 12 c0 -11 -26 -22 -34 -14 -12 12 -5 23 14 23 11 0 20 -4 20 -9z
m10010 -54 c0 -5 -4 -5 -10 -2 -5 3 -10 14 -10 23 0 15 2 15 10 2 5 -8 10 -19
10 -23z m-150 -2 c0 -8 -4 -17 -10 -20 -6 -4 -10 5 -10 20 0 15 4 24 10 20 6
-3 10 -12 10 -20z m118 -63 c2 -7 -3 -12 -12 -12 -9 0 -16 7 -16 16 0 17 22
14 28 -4z m-4797 -14 c11 -21 11 -22 -4 -9 -10 7 -17 17 -17 22 0 15 9 10 21
-13z m4659 7 c0 -8 -4 -15 -10 -15 -5 0 -10 7 -10 15 0 8 5 15 10 15 6 0 10
-7 10 -15z m180 -19 c0 -2 -7 -9 -15 -16 -12 -10 -15 -10 -15 4 0 9 7 16 15
16 8 0 15 -2 15 -4z m-42 -39 c4 -20 -25 -34 -40 -19 -15 15 -1 44 19 40 10
-2 19 -11 21 -21z m-4844 -2 c-4 -8 -8 -15 -10 -15 -2 0 -4 7 -4 15 0 8 4 15
10 15 5 0 7 -7 4 -15z m4303 -21 c-3 -3 -12 -4 -19 -1 -8 3 -5 6 6 6 11 1 17
-2 13 -5z m-9807 -75 c0 -62 -2 -70 -15 -59 -8 7 -15 23 -15 36 0 13 -4 24 -9
24 -16 0 -18 34 -3 53 31 36 42 21 42 -54z m90 40 c0 -5 -4 -9 -10 -9 -5 0
-10 7 -10 16 0 8 5 12 10 9 6 -3 10 -10 10 -16z m10127 -1 c-3 -8 -6 -5 -6 6
-1 11 2 17 5 13 3 -3 4 -12 1 -19z m-8527 -50 c0 -15 -11 -21 -36 -17 -4 0
-11 -5 -16 -13 -7 -10 -11 -10 -15 0 -2 6 -11 12 -19 12 -8 0 -14 9 -14 20 0
24 16 26 28 4 13 -23 32 -9 32 23 0 25 0 26 20 8 11 -10 20 -26 20 -37z m6438
4 c2 -7 -3 -12 -12 -12 -9 0 -16 7 -16 16 0 17 22 14 28 -4z m1064 -24 c21
-23 38 -45 38 -50 0 -5 9 -7 20 -3 15 5 23 0 31 -19 8 -17 19 -25 33 -23 12 1
22 -5 24 -16 3 -15 -2 -17 -35 -11 -22 3 -57 7 -79 7 -25 1 -38 6 -36 15 1 7
-8 12 -23 12 -18 0 -25 5 -25 18 0 11 -9 29 -20 42 -33 39 -25 63 24 69 5 0
26 -18 48 -41z m-9102 -29 c-14 -25 -16 -24 -14 9 3 53 5 58 15 34 6 -15 5
-30 -1 -43z m700 51 c0 -5 -4 -10 -10 -10 -5 0 -10 5 -10 10 0 6 5 10 10 10 6
0 10 -4 10 -10z m9000 6 c0 -11 -19 -15 -25 -6 -3 5 1 10 9 10 9 0 16 -2 16
-4z m-4462 -18 c7 -7 11 -23 11 -37 -1 -21 -2 -22 -6 -6 -3 11 -11 24 -19 28
-15 9 -19 27 -6 27 4 0 13 -5 20 -12z m4712 -19 c0 -5 -4 -9 -10 -9 -5 0 -10
7 -10 16 0 8 5 12 10 9 6 -3 10 -10 10 -16z m-4463 -35 c-7 -44 -11 -48 -32
-40 -12 4 -14 12 -9 28 17 56 49 65 41 12z m-5242 16 c3 -5 -1 -10 -9 -10 -9
0 -16 5 -16 10 0 6 4 10 9 10 6 0 13 -4 16 -10z m245 -6 c0 -6 -11 -11 -25
-11 -14 0 -25 4 -25 9 0 7 -5 6 -13 -1 -8 -6 -17 -8 -20 -4 -16 15 -4 21 38
20 26 -1 45 -7 45 -13z m-644 -31 c-11 -11 -19 6 -11 24 8 17 8 17 12 0 3 -10
2 -21 -1 -24z m774 13 c0 -8 -4 -17 -9 -21 -12 -7 -24 12 -16 25 9 15 25 12
25 -4z m4811 -23 c5 -25 3 -30 -9 -26 -12 5 -14 0 -8 -29 3 -19 2 -48 -3 -64
-5 -16 -12 -41 -15 -56 -5 -22 -12 -28 -34 -28 -16 0 -36 6 -46 13 -23 17 -33
97 -16 137 13 31 40 41 40 16 0 -8 5 -18 11 -22 9 -5 10 6 7 39 -5 45 -5 47
18 41 15 -4 24 -2 24 6 0 24 25 2 31 -27z m4629 17 c11 -11 20 -24 20 -30 0
-5 -9 -10 -20 -10 -14 0 -20 7 -20 24 0 13 -6 27 -12 29 -10 4 -10 6 0 6 6 1
21 -8 32 -19z m-9755 0 c-3 -5 -10 -10 -16 -10 -5 0 -9 5 -9 10 0 6 7 10 16
10 8 0 12 -4 9 -10z m56 -51 c-10 -23 -10 -22 -8 8 0 18 5 29 9 25 5 -5 4 -19
-1 -33z m9659 20 c0 -12 -37 -12 -44 0 -3 4 -3 11 0 14 8 7 44 -4 44 -14z
m-1963 -21 c-3 -7 -5 -2 -5 12 0 14 2 19 5 13 2 -7 2 -19 0 -25z m1267 16 c9
-3 13 -10 10 -15 -3 -5 1 -9 10 -9 8 0 17 -6 20 -12 3 -10 9 -8 19 4 13 16 16
15 42 -12 18 -18 35 -28 45 -25 9 3 24 -3 33 -13 19 -21 30 -109 14 -119 -25
-16 -69 -10 -97 13 -15 13 -33 24 -38 24 -6 0 -10 12 -9 28 1 17 -3 26 -10 25
-16 -4 -47 43 -38 57 3 5 1 10 -5 10 -6 0 -14 -10 -19 -22 -7 -20 -9 -18 -15
15 -10 52 1 65 38 51z m456 -4 c0 -5 -4 -10 -10 -10 -5 0 -10 5 -10 10 0 6 5
10 10 10 6 0 10 -4 10 -10z m442 -12 c-7 -7 -12 -8 -12 -2 0 14 12 26 19 19 2
-3 -1 -11 -7 -17z m-10286 -45 c-11 -11 -19 6 -11 24 8 17 8 17 12 0 3 -10 2
-21 -1 -24z m344 6 c0 -11 -4 -17 -10 -14 -5 3 -10 13 -10 21 0 8 5 14 10 14
6 0 10 -9 10 -21z m371 0 c9 -17 8 -25 -5 -37 -14 -14 -16 -13 -26 12 -5 15
-10 32 -10 37 0 17 29 9 41 -12z m7389 13 c0 -13 -12 -22 -22 -16 -10 6 -1 24
13 24 5 0 9 -4 9 -8z m2280 -7 c0 -8 -4 -15 -10 -15 -5 0 -10 7 -10 15 0 8 5
15 10 15 6 0 10 -7 10 -15z m-10185 -25 c3 -5 1 -10 -4 -10 -6 0 -11 5 -11 10
0 6 2 10 4 10 3 0 8 -4 11 -10z m7535 0 c0 -5 -5 -10 -11 -10 -5 0 -7 5 -4 10
3 6 8 10 11 10 2 0 4 -4 4 -10z m-7316 -27 c4 -9 4 -18 1 -21 -7 -8 -35 19
-35 34 0 17 27 7 34 -13z m3916 -27 c0 -5 -7 -3 -15 4 -8 7 -12 17 -9 22 7 10
24 -9 24 -26z m-3783 -2 c-3 -4 -14 -3 -24 0 -15 6 -15 8 -3 16 16 10 39 -4
27 -16z m3830 -6 c-3 -8 -6 -5 -6 6 -1 11 2 17 5 13 3 -3 4 -12 1 -19z m3693
7 c0 -8 -4 -15 -10 -15 -5 0 -10 7 -10 15 0 8 5 15 10 15 6 0 10 -7 10 -15z
m117 1 c3 -3 0 -12 -7 -21 -10 -12 -9 -16 4 -21 19 -7 21 -45 4 -63 -13 -13
-9 -13 77 3 6 1 20 7 32 14 19 10 24 9 36 -8 7 -11 17 -17 22 -12 8 8 -3 -87
-13 -102 -3 -5 -11 0 -19 10 -14 19 -15 19 -28 -1 -28 -39 -36 -45 -58 -40
-17 4 -27 -2 -42 -25 -25 -38 -35 -38 -63 4 -19 28 -21 38 -13 55 18 33 13 46
-34 96 -36 37 -43 50 -34 61 6 8 18 14 25 14 8 0 14 6 14 13 0 23 21 35 57 32
19 -2 37 -6 40 -9z m-7542 -6 c3 -5 1 -10 -4 -10 -6 0 -11 5 -11 10 0 6 2 10
4 10 3 0 8 -4 11 -10z m3745 -52 c0 -13 -23 -9 -41 8 -10 9 -15 22 -12 30 4
11 10 9 29 -8 13 -13 24 -26 24 -30z m-3673 28 c15 -8 37 -18 48 -22 18 -6 17
-7 -9 -15 -22 -6 -33 -3 -49 12 -11 10 -24 19 -29 19 -4 0 -8 5 -8 10 0 14 13
13 47 -4z m-347 -29 c0 -41 -19 -70 -39 -58 -8 5 -10 14 -6 22 6 9 10 8 16 -7
7 -17 8 -16 8 6 1 28 11 70 17 70 2 0 4 -15 4 -33z m1630 18 c0 -8 5 -15 10
-15 6 0 10 -9 10 -20 0 -18 -1 -18 -25 4 -28 26 -32 46 -10 46 8 0 15 -7 15
-15z m-1580 -25 c0 -5 -4 -10 -10 -10 -5 0 -10 5 -10 10 0 6 5 10 10 10 6 0
10 -4 10 -10z m184 4 c27 -10 18 -21 -14 -16 -16 2 -30 8 -30 13 0 10 21 12
44 3z m106 -24 c0 -5 -5 -10 -11 -10 -5 0 -7 5 -4 10 3 6 8 10 11 10 2 0 4 -4
4 -10z m170 0 c0 -5 -6 -10 -14 -10 -8 0 -21 -3 -30 -6 -9 -3 -16 -1 -16 4 0
9 9 13 53 21 4 0 7 -3 7 -9z m3478 -2 c-3 -7 -13 -13 -23 -13 -10 0 -20 6 -22
13 -3 7 5 12 22 12 17 0 25 -5 23 -12z m1683 -1 c-1 -4 -1 -16 -1 -27 0 -11
-7 -20 -15 -20 -16 0 -19 17 -9 45 6 15 26 17 25 2z m-5517 -3 c22 -8 21 -44
-1 -44 -21 0 -55 20 -35 20 6 0 12 7 12 15 0 17 2 18 24 9z m440 -9 c-5 -12
-10 -13 -20 -4 -19 15 -18 19 6 19 13 0 18 -5 14 -15z m36 11 c0 -3 -4 -8 -10
-11 -5 -3 -10 -1 -10 4 0 6 5 11 10 11 6 0 10 -2 10 -4z m4790 -6 c0 -5 -4
-10 -10 -10 -5 0 -10 5 -10 10 0 6 5 10 10 10 6 0 10 -4 10 -10z m960 1 c0
-12 -20 -25 -27 -18 -7 7 6 27 18 27 5 0 9 -4 9 -9z m-33 -37 c3 -9 16 -14 32
-12 14 1 32 -1 39 -5 17 -11 15 -67 -3 -111 -14 -33 -18 -36 -58 -36 -23 0
-50 7 -60 14 -24 18 -30 82 -10 112 8 13 12 28 8 34 -4 6 -4 18 -1 26 5 12 10
13 26 4 12 -6 24 -18 27 -26z m-6022 -14 c11 -17 29 -33 41 -36 11 -3 28 -18
38 -35 9 -16 24 -29 32 -29 24 0 12 -35 -13 -38 -17 -3 -20 1 -16 16 3 15 -2
21 -24 25 -18 4 -35 18 -46 38 -13 23 -23 30 -37 26 -17 -4 -20 0 -20 29 0 43
18 44 45 4z m110 3 c5 -12 20 -24 32 -28 28 -7 31 -35 3 -35 -11 0 -20 6 -20
14 0 8 -16 20 -35 26 -24 8 -35 18 -35 31 0 28 42 22 55 -8z m4965 -8 c0 -14
-4 -25 -10 -25 -5 0 -10 11 -10 25 0 14 5 25 10 25 6 0 10 -11 10 -25z m875
16 c7 -13 -33 -34 -51 -27 -8 3 -14 12 -14 21 0 17 55 22 65 6z m-5722 -21
c-3 -11 -14 -20 -24 -20 -21 0 -26 26 -6 33 25 11 35 7 30 -13z m121 14 c16
-6 23 -44 8 -44 -14 0 -43 36 -35 43 8 8 8 8 27 1z m-774 -19 c0 -8 -7 -15
-15 -15 -16 0 -20 12 -8 23 11 12 23 8 23 -8z m6190 -11 c0 -9 -7 -14 -17 -12
-25 5 -28 28 -4 28 12 0 21 -6 21 -16z m-56 -3 c7 -10 -22 -37 -30 -28 -9 8 3
37 15 37 5 0 12 -4 15 -9z m-5772 -19 c12 -5 15 -11 8 -22 -8 -12 -12 -11 -30
8 -21 22 -12 28 22 14z m-267 -23 c8 -23 1 -34 -14 -24 -13 8 -15 45 -2 45 5
0 13 -9 16 -21z m618 7 c26 -20 21 -36 -12 -36 -33 0 -46 13 -37 35 7 18 25
19 49 1z m4307 -33 c0 -17 -7 -27 -21 -30 -11 -3 -18 -11 -15 -18 2 -6 0 -18
-5 -26 -7 -11 -9 -11 -9 -1 0 7 -13 18 -30 23 -37 13 -30 30 26 64 44 27 54
24 54 -12z m-4726 11 c24 -9 -3 -44 -34 -44 -14 0 -35 -7 -47 -15 -30 -21 -38
-2 -16 35 13 23 24 30 49 30 18 0 39 -3 48 -6z m3836 -13 c0 -6 -5 -13 -10
-16 -15 -9 -43 3 -35 15 8 13 45 13 45 1z m5385 -3 c14 -6 25 -14 26 -17 0 -3
2 -16 5 -28 2 -13 0 -23 -5 -23 -11 0 -61 58 -61 71 0 12 4 11 35 -3z m-9520
-28 c-6 -9 -9 -9 -16 1 -10 17 0 34 13 21 6 -6 7 -16 3 -22z m430 19 c4 -6 -2
-13 -14 -16 -12 -3 -21 -9 -21 -14 0 -5 -11 -9 -25 -9 -14 0 -25 5 -25 10 0 6
7 10 15 10 9 0 18 7 21 15 7 17 40 20 49 4z m4377 -21 c29 -18 55 -36 56 -40
2 -5 8 -6 13 -2 15 9 10 -22 -8 -60 -10 -20 -23 -36 -29 -36 -16 0 -26 -29
-19 -51 9 -26 -21 -25 -35 1 -6 11 -17 20 -24 20 -8 0 -16 7 -20 15 -7 18 -37
20 -54 3 -10 -10 -17 -10 -32 0 -11 6 -33 12 -49 12 -37 0 -47 26 -31 75 8 24
19 37 36 41 13 3 24 10 24 15 0 5 10 7 23 4 16 -4 29 0 41 14 26 29 47 26 108
-11z m-4172 -13 c0 -14 8 -29 20 -35 11 -6 20 -17 20 -25 0 -18 -23 -32 -28
-17 -2 7 -17 12 -33 12 -29 0 -30 1 -23 38 10 52 44 74 44 27z m256 -63 c-3
-37 -5 -70 -5 -75 -1 -4 -10 -2 -21 5 -17 11 -17 14 -5 28 11 13 12 19 3 28
-8 8 -8 12 -1 12 6 0 8 11 5 25 -5 31 4 58 18 50 7 -4 9 -32 6 -73z m-152 26
c-3 -5 -1 -15 6 -22 6 -8 13 -23 15 -35 5 -28 -24 -28 -48 -1 -18 21 -21 40
-11 78 6 21 8 22 25 6 10 -9 16 -21 13 -26z m2282 6 c-3 -8 -10 -12 -16 -9 -7
4 -6 14 2 28 12 24 24 8 14 -19z m-2556 4 c5 -13 9 -19 9 -15 1 5 14 0 30 -9
17 -10 28 -21 25 -26 -9 -14 -46 -9 -63 10 -9 9 -25 22 -36 28 -30 16 -30 34
-1 34 18 0 30 -7 36 -22z m-350 -35 c0 -18 -10 -16 -26 5 -22 28 -18 48 6 27
11 -10 20 -24 20 -32z m4342 -20 c-2 -38 -10 -78 -18 -90 -8 -12 -14 -30 -14
-39 0 -10 -5 -14 -16 -10 -8 3 -13 2 -9 -3 3 -5 2 -16 -1 -25 -5 -14 -10 -13
-38 6 -17 12 -32 26 -34 30 -2 4 -14 8 -26 8 -28 0 -86 19 -86 28 0 10 20 38
20 29 0 -4 17 1 38 12 35 18 52 33 106 94 16 17 35 27 54 27 l28 0 -4 -67z
m2718 60 c0 -5 -4 -15 -10 -23 -11 -18 -25 -7 -17 15 6 15 27 21 27 8z m-6960
-60 c0 -16 -40 -37 -51 -26 -4 4 -1 23 8 42 15 31 18 32 30 15 7 -10 13 -24
13 -31z m120 -14 c0 -24 -4 -29 -24 -29 -39 0 -45 54 -8 63 26 5 32 -1 32 -34z
m2694 26 c3 -9 0 -15 -9 -15 -8 0 -15 7 -15 15 0 8 4 15 9 15 5 0 11 -7 15
-15z m4112 -34 c-3 -23 -2 -42 4 -46 14 -9 3 -25 -17 -25 -10 0 -14 6 -10 20
3 11 1 23 -4 26 -15 9 -10 42 9 53 25 15 25 15 18 -28z m-6338 -5 c-2 -10 -7
-13 -17 -7 -8 6 -11 16 -7 27 8 21 30 4 24 -20z m8822 4 c0 -11 -4 -20 -10
-20 -5 0 -10 9 -10 20 0 11 5 20 10 20 6 0 10 -9 10 -20z m-9180 0 c0 -5 -4
-10 -9 -10 -5 0 -17 -7 -25 -16 -15 -14 -16 -14 -16 4 0 10 3 22 7 25 10 11
43 8 43 -3z m2650 -4 c0 -3 -4 -8 -10 -11 -5 -3 -10 -1 -10 4 0 6 5 11 10 11
6 0 10 -2 10 -4z m29 -35 c-15 -5 -22 6 -14 19 6 9 10 9 16 -1 5 -8 4 -15 -2
-18z m2006 -1 c3 -10 2 -27 -3 -37 -5 -10 -8 -23 -5 -29 2 -6 -3 -17 -12 -24
-8 -7 -15 -18 -15 -24 0 -12 -63 -66 -77 -66 -4 0 -17 -17 -28 -37 -23 -42
-45 -54 -45 -24 0 22 36 98 57 119 7 7 13 21 14 30 1 9 2 25 3 35 4 55 97 102
111 57z m-5095 0 c0 -5 -5 -10 -11 -10 -5 0 -7 5 -4 10 3 6 8 10 11 10 2 0 4
-4 4 -10z m355 -21 c0 -7 -8 -15 -17 -17 -18 -3 -25 18 -11 32 10 10 28 1 28
-15z m8145 -10 c0 -10 -4 -19 -10 -19 -5 0 -10 12 -10 26 0 14 4 23 10 19 6
-3 10 -15 10 -26z m-8712 10 c-10 -5 -18 -17 -18 -26 0 -9 -3 -14 -6 -10 -11
11 7 47 24 47 16 -1 15 -2 0 -11z m112 -19 c0 -19 -20 -27 -33 -13 -8 7 11 33
24 33 5 0 9 -9 9 -20z m350 0 c0 -6 -7 -13 -15 -16 -9 -4 -15 -19 -15 -35 0
-31 -17 -39 -26 -14 -4 8 -11 12 -17 8 -5 -3 -8 -2 -6 3 3 5 11 21 19 37 13
27 60 40 60 17z m-130 -15 c0 -8 -4 -15 -9 -15 -13 0 -22 16 -14 24 11 11 23
6 23 -9z m9616 -10 c4 -8 17 -15 29 -15 25 0 85 -44 85 -62 0 -6 21 -34 48
-62 26 -28 59 -66 74 -83 15 -18 30 -33 33 -33 11 0 60 -41 60 -50 0 -10 53
-60 64 -60 4 0 21 -14 39 -31 27 -27 30 -33 20 -55 -10 -21 -13 -22 -20 -9 -5
8 -18 15 -28 15 -11 0 -20 4 -20 10 0 5 -12 13 -27 16 -16 4 -68 27 -118 52
-70 34 -97 54 -122 88 -18 25 -33 51 -33 60 0 8 -18 33 -40 55 -22 22 -40 42
-40 44 0 8 -51 55 -60 55 -6 0 -10 18 -10 40 0 38 2 40 30 40 18 0 33 -6 36
-15z m-2651 -5 c3 -5 1 -10 -4 -10 -6 0 -11 5 -11 10 0 6 2 10 4 10 3 0 8 -4
11 -10z m-7301 -39 c-8 -16 -22 -32 -31 -35 -12 -5 -14 -15 -10 -41 6 -39 7
-38 -27 -25 -34 13 -36 55 -3 64 13 3 27 18 34 36 7 20 18 30 31 30 19 0 20
-2 6 -29z m337 19 c5 0 9 -7 9 -16 0 -23 -44 -14 -48 10 -3 14 0 17 13 12 9
-3 21 -6 26 -6z m6919 -25 c0 -8 5 -15 12 -15 6 0 3 -9 -8 -21 -17 -19 -19
-19 -25 -2 -12 30 -10 53 6 53 8 0 15 -7 15 -15z m-2493 -21 c3 -9 1 -25 -5
-35 -9 -13 -8 -19 1 -22 9 -3 9 -7 0 -17 -16 -17 -44 -5 -37 15 3 8 1 15 -5
15 -6 0 -11 14 -11 30 0 25 4 30 25 30 15 0 28 -7 32 -16z m3982 -35 c-13 -26
-19 -24 -19 6 0 17 4 23 15 19 11 -5 12 -11 4 -25z m-8439 -4 c17 -21 4 -35
-35 -35 -18 0 -40 -6 -47 -13 -25 -25 -47 -32 -93 -29 -29 3 -49 10 -52 19 -9
22 17 34 59 28 30 -4 42 0 65 20 32 28 84 33 103 10z m170 -14 c19 -36 13 -42
-40 -36 -49 5 -66 -5 -36 -22 7 -4 17 -18 20 -30 7 -22 5 -23 -56 -22 -67 1
-143 19 -143 34 0 5 30 9 68 10 37 1 69 4 72 6 2 3 -2 18 -10 33 -20 39 -20
39 24 32 23 -3 42 -2 46 4 10 17 44 11 55 -9z m4230 -9 c0 -10 -13 -33 -30
-52 -29 -35 -39 -70 -20 -70 6 0 10 -5 10 -12 0 -6 -3 -8 -7 -5 -3 4 -20 -2
-37 -12 -17 -11 -35 -20 -41 -21 -5 -1 -9 -12 -8 -26 1 -19 -3 -24 -23 -24
-35 0 -39 22 -12 64 22 34 48 48 48 26 0 -5 7 -10 15 -10 8 0 15 5 15 10 0 6
-7 10 -15 10 -24 0 -18 16 21 57 20 21 43 48 51 61 18 27 33 29 33 4z m-4841
-21 c16 -10 6 -31 -15 -31 -8 0 -14 9 -14 20 0 22 7 25 29 11z m6626 -15 c22
1 49 2 60 2 11 1 42 -1 68 -4 27 -4 60 -1 76 5 30 13 71 3 98 -25 21 -20 6
-70 -20 -68 -9 1 -17 -4 -17 -11 0 -7 -6 -18 -14 -24 -10 -8 -19 -6 -38 9
l-26 20 -5 -21 c-5 -18 -11 -20 -34 -15 -37 9 -65 9 -72 -1 -14 -18 -49 -31
-77 -26 -60 9 -71 13 -72 25 -1 7 -5 33 -11 57 -11 53 3 96 28 84 9 -4 34 -7
56 -7z m-1102 -21 c-3 -9 2 -22 13 -30 18 -13 18 -15 -3 -37 -13 -12 -23 -17
-23 -10 0 7 -11 12 -24 12 -19 0 -25 -6 -28 -27 -2 -20 -9 -28 -23 -28 -13 -1
-18 -6 -15 -15 3 -8 5 -50 5 -93 0 -42 3 -77 6 -77 11 0 17 -37 9 -50 -6 -10
-16 -10 -42 -1 -19 6 -51 10 -72 7 -40 -5 -44 3 -19 41 27 41 51 118 46 146
-6 31 39 103 78 123 16 8 33 23 39 34 13 24 63 29 53 5z m-5454 -8 c13 -16 5
-27 -21 -27 -11 0 -18 7 -18 20 0 23 22 27 39 7z m604 -1 c10 -1 25 -10 35
-20 16 -16 16 -17 0 -10 -10 3 -37 7 -60 8 -33 1 -44 5 -46 20 -3 16 0 18 25
12 15 -4 36 -8 46 -10z m-493 -6 c0 -5 -7 -10 -15 -10 -8 0 -15 5 -15 10 0 6
7 10 15 10 8 0 15 -4 15 -10z m135 -29 c-3 -6 -11 -8 -17 -5 -6 4 -5 9 3 15
16 10 23 4 14 -10z m3754 -37 c1 15 4 16 16 6 8 -7 15 -21 15 -31 0 -9 -7 -24
-15 -33 -8 -8 -15 -24 -15 -36 0 -16 -5 -21 -22 -18 -20 3 -23 -2 -23 -27 -1
-17 -11 -45 -24 -63 -27 -39 -41 -112 -47 -242 -7 -145 -9 -173 -18 -195 -18
-46 -25 -73 -30 -125 -11 -114 -25 -183 -40 -199 -9 -10 -16 -27 -16 -38 0
-11 -9 -30 -19 -42 -10 -12 -32 -48 -47 -79 -15 -31 -34 -63 -41 -70 -10 -10
-12 -34 -7 -95 4 -45 10 -86 15 -92 5 -5 9 -18 9 -28 0 -18 -1 -19 -22 -3 -13
9 -37 23 -55 31 -17 8 -34 24 -38 35 -3 11 -12 20 -20 20 -22 0 -32 49 -31
151 1 88 4 100 29 136 23 33 27 51 29 114 1 41 8 88 15 106 7 18 13 51 13 73
0 23 6 53 14 68 7 15 16 52 20 82 4 30 15 63 24 73 13 15 14 27 6 78 -11 63
-2 86 26 69 18 -11 47 4 55 30 3 11 15 20 26 20 14 0 19 7 19 28 0 15 9 61 20
102 17 66 25 80 70 122 27 26 50 55 50 63 0 9 10 19 23 24 18 7 23 4 29 -13 5
-18 6 -18 7 -2z m3781 17 c0 -5 3 -18 7 -28 4 -13 1 -12 -15 6 -26 29 -27 31
-7 31 8 0 15 -4 15 -9z m3036 -45 c-10 -88 -66 -112 -101 -44 -12 25 -13 33
-3 40 7 4 16 8 19 8 3 0 17 11 31 23 14 13 33 24 43 24 15 0 17 -7 11 -51z
m-9768 18 c3 -18 -2 -21 -30 -20 -27 1 -34 6 -36 24 -3 21 0 23 30 20 25 -2
34 -8 36 -24z m2389 -45 c-6 -51 -25 -89 -43 -89 -15 0 -48 -30 -62 -56 -7
-13 -8 -33 -3 -50 4 -16 8 -59 9 -96 2 -54 -1 -68 -13 -68 -30 0 -63 -24 -84
-60 -11 -21 -21 -44 -21 -51 0 -7 -9 -22 -19 -33 -23 -25 -27 -54 -17 -122 9
-65 -18 -153 -54 -171 l-24 -12 27 -10 c31 -12 33 -24 13 -95 -8 -28 -20 -73
-26 -101 -6 -27 -20 -86 -31 -130 -11 -44 -22 -115 -24 -158 -3 -89 -11 -127
-25 -127 -6 0 -10 18 -10 40 0 22 -7 57 -15 77 -10 22 -13 49 -9 70 5 26 3 33
-10 33 -18 0 -23 45 -6 55 6 3 10 26 10 51 0 50 25 140 46 165 8 8 14 22 14
30 1 8 8 32 16 54 23 59 33 109 43 218 7 75 15 107 35 141 15 25 26 60 26 80
0 19 5 38 11 42 7 4 9 21 6 43 -4 23 -1 43 8 55 8 11 15 34 15 51 0 38 36 115
61 133 11 7 19 20 19 28 0 8 7 17 15 20 8 3 23 21 34 40 19 31 23 34 42 23 19
-10 21 -9 16 5 -4 9 -4 23 -1 31 5 13 9 13 21 3 11 -9 14 -25 10 -59z m1583
61 c0 -5 -4 -10 -10 -10 -5 0 -10 5 -10 10 0 6 5 10 10 10 6 0 10 -4 10 -10z
m2720 6 c0 -3 -4 -8 -10 -11 -5 -3 -10 -1 -10 4 0 6 5 11 10 11 6 0 10 -2 10
-4z m-2810 -21 c24 -8 50 -24 57 -35 8 -11 20 -20 28 -20 30 0 24 -20 -11 -35
-27 -11 -35 -20 -31 -32 2 -10 6 -24 8 -32 7 -27 -30 -23 -68 7 -21 17 -48 33
-60 37 -13 3 -23 14 -23 25 0 10 -9 20 -21 23 -32 9 -20 41 16 45 17 2 34 10
38 18 10 18 15 17 67 -1z m174 -40 c16 -24 16 -25 -9 -25 -20 0 -25 5 -25 25
0 14 4 25 9 25 5 0 16 -11 25 -25z m2684 -37 c2 -10 -8 -28 -22 -41 -15 -14
-26 -35 -26 -51 0 -15 -6 -26 -14 -26 -15 0 -26 -30 -26 -70 0 -15 -5 -31 -11
-37 -16 -16 -2 -33 26 -33 13 0 27 -5 30 -10 12 -19 -15 -39 -46 -35 -16 2
-27 0 -25 -4 3 -4 -2 -18 -10 -30 -17 -24 -61 -26 -56 -3 1 7 -11 18 -28 23
-19 7 -30 18 -30 29 0 22 -22 39 -28 22 -5 -15 -42 -16 -42 -1 0 6 33 45 73
87 123 127 138 144 132 150 -9 10 16 31 31 25 7 -3 17 2 20 11 8 22 48 17 52
-6z m432 12 c0 -5 -4 -10 -9 -10 -6 0 -13 5 -16 10 -3 6 1 10 9 10 9 0 16 -4
16 -10z m-3660 -35 c0 -8 -4 -15 -9 -15 -13 0 -22 16 -14 24 11 11 23 6 23 -9z
m6040 -95 c77 -20 95 -34 126 -97 25 -52 2 -69 -43 -33 -14 11 -34 20 -43 20
-10 0 -20 9 -23 20 -3 14 -14 20 -32 20 -20 0 -25 4 -21 18 5 18 -20 55 -44
65 -32 12 8 6 80 -13z m-6160 -42 c0 -4 -9 -8 -19 -8 -21 0 -31 17 -23 38 3
10 9 9 23 -4 11 -9 19 -21 19 -26z m555 5 c7 -30 3 -36 -19 -27 -10 4 -16 17
-16 35 0 35 25 30 35 -8z m3702 -103 c3 -11 9 -20 14 -20 5 0 9 -9 9 -20 0
-11 -4 -20 -10 -20 -5 0 -10 5 -10 11 0 6 -10 19 -22 28 -12 10 -18 23 -14 29
11 18 27 14 33 -8z m-2522 -30 c21 -22 43 -40 47 -40 16 0 58 -44 58 -60 0
-21 -26 -45 -62 -59 -20 -7 -29 -19 -34 -46 -4 -25 -14 -40 -30 -47 -13 -6
-24 -16 -24 -21 0 -5 -7 -4 -15 3 -8 6 -23 9 -34 5 -15 -4 -25 1 -37 21 -18
26 -18 27 9 48 20 16 24 25 16 33 -8 8 -3 15 17 24 39 20 40 65 1 100 -18 17
-25 29 -18 33 6 4 11 16 11 27 0 35 51 24 95 -21z m-1855 -40 c0 -5 -9 -10
-21 -10 -11 0 -17 5 -14 10 3 6 13 10 21 10 8 0 14 -4 14 -10z m1000 -30 c0
-5 -2 -10 -4 -10 -3 0 -8 5 -11 10 -3 6 -1 10 4 10 6 0 11 -4 11 -10z m2807
-26 c-3 -3 -12 -4 -19 -1 -8 3 -5 6 6 6 11 1 17 -2 13 -5z m-2707 -34 c0 -15
-7 -20 -25 -20 -23 0 -24 2 -15 20 6 11 17 20 25 20 8 0 15 -9 15 -20z m-1200
-87 c0 -20 -3 -24 -11 -16 -7 7 -9 19 -6 27 10 24 17 19 17 -11z m-120 -19 c0
-8 -9 -14 -20 -14 -19 0 -28 28 -13 43 9 9 33 -12 33 -29z m68 8 c2 -15 -2
-22 -12 -22 -11 0 -16 9 -16 26 0 31 23 28 28 -4z m3472 12 c0 -2 -9 -4 -21
-4 -11 0 -18 4 -14 10 5 8 35 3 35 -6z m-3330 -24 c0 -5 -7 -10 -15 -10 -8 0
-15 5 -15 10 0 6 7 10 15 10 8 0 15 -4 15 -10z m-212 -56 c12 -4 22 -12 22
-19 0 -7 6 -15 13 -18 9 -3 9 -7 -1 -20 -8 -9 -11 -25 -8 -35 4 -13 1 -22 -8
-25 -15 -6 -18 -1 -30 55 -4 18 -11 25 -20 22 -10 -4 -12 2 -9 20 6 28 7 29
41 20z m-71 -106 c-3 -7 -5 -2 -5 12 0 14 2 19 5 13 2 -7 2 -19 0 -25z m173 5
c0 -5 -5 -15 -10 -23 -8 -12 -10 -11 -10 8 0 12 5 22 10 22 6 0 10 -3 10 -7z
m-134 -41 c6 -4 14 -17 18 -28 5 -16 2 -23 -13 -27 -25 -6 -31 0 -31 35 0 29
6 33 26 20z m-144 -524 c-6 -6 -15 -8 -19 -4 -4 4 -1 11 7 16 19 12 27 3 12
-12z m-533 -95 c14 -16 31 -38 38 -51 14 -26 12 -76 -3 -78 -16 -2 -44 20 -44
36 0 8 -9 21 -20 28 -26 16 -28 92 -2 92 3 0 16 -12 31 -27z m368 -49 c-3 -3
-12 -4 -19 -1 -8 3 -5 6 6 6 11 1 17 -2 13 -5z m-717 -89 c0 -19 -4 -35 -10
-35 -11 0 -13 30 -4 54 10 25 14 19 14 -19z m899 -92 c31 -46 40 -83 21 -83
-5 0 -10 -6 -10 -14 0 -7 -6 -19 -14 -25 -18 -15 -26 -59 -12 -66 6 -2 0 -2
-14 1 -34 9 -34 7 -31 72 2 40 8 63 22 78 21 22 25 49 9 59 -10 6 -14 25 -6
25 2 0 18 -21 35 -47z m-955 -47 c-3 -15 -8 -25 -11 -23 -2 3 -1 17 3 31 3 15
8 25 11 23 2 -3 1 -17 -3 -31z m524 17 c6 -10 13 -37 17 -60 4 -24 11 -45 16
-49 17 -10 9 -36 -17 -61 -32 -29 -54 -24 -55 14 -2 50 3 158 8 166 7 12 22 8
31 -10z m-528 -75 c0 -16 -3 -19 -11 -11 -6 6 -8 16 -5 22 11 17 16 13 16 -11z
m-47 -61 c-7 -12 -23 3 -23 22 0 28 14 35 21 9 3 -13 4 -26 2 -31z m754 -71
c-4 -9 -13 -16 -21 -16 -15 0 -16 16 -2 38 11 18 31 -1 23 -22z m-127 -36 c0
-5 -5 -10 -11 -10 -5 0 -7 5 -4 10 3 6 8 10 11 10 2 0 4 -4 4 -10z"/>
<path d="M7830 2420 c0 -5 5 -10 11 -10 5 0 7 5 4 10 -3 6 -8 10 -11 10 -2 0
-4 -4 -4 -10z"/>
<path d="M7122 6350 c0 -19 2 -27 5 -17 2 9 2 25 0 35 -3 9 -5 1 -5 -18z"/>
<path d="M430 6265 c0 -8 7 -15 15 -15 8 0 15 7 15 15 0 8 -7 15 -15 15 -8 0
-15 -7 -15 -15z"/>
<path d="M45 6257 c-4 -10 -5 -21 -1 -24 10 -10 18 4 13 24 -4 17 -4 17 -12 0z"/>
<path d="M7960 6240 c0 -5 5 -10 11 -10 5 0 7 5 4 10 -3 6 -8 10 -11 10 -2 0
-4 -4 -4 -10z"/>
<path d="M6257 6226 c-4 -10 2 -20 14 -27 18 -9 20 -8 17 12 -4 27 -23 36 -31
15z"/>
<path d="M10 6155 c0 -8 5 -15 10 -15 6 0 10 7 10 15 0 8 -4 15 -10 15 -5 0
-10 -7 -10 -15z"/>
<path d="M7992 6127 c0 -26 5 -44 9 -41 10 6 6 70 -4 81 -4 3 -6 -15 -5 -40z"/>
<path d="M370 6135 c0 -11 7 -15 23 -13 12 2 22 8 22 13 0 6 -10 11 -22 13
-16 2 -23 -2 -23 -13z"/>
<path d="M6217 6143 c-12 -11 -8 -23 8 -23 8 0 15 7 15 15 0 16 -12 20 -23 8z"/>
<path d="M280 6075 c0 -9 9 -15 21 -15 18 0 19 2 9 15 -7 8 -16 15 -21 15 -5
0 -9 -7 -9 -15z"/>
<path d="M160 6070 c0 -5 5 -10 10 -10 6 0 10 5 10 10 0 6 -4 10 -10 10 -5 0
-10 -4 -10 -10z"/>
<path d="M640 6070 c0 -5 7 -10 16 -10 8 0 12 5 9 10 -3 6 -10 10 -16 10 -5 0
-9 -4 -9 -10z"/>
<path d="M230 6035 c0 -21 30 -31 41 -14 14 23 11 29 -16 29 -16 0 -25 -6 -25
-15z"/>
<path d="M8188 6043 c6 -2 18 -2 25 0 6 3 1 5 -13 5 -14 0 -19 -2 -12 -5z"/>
<path d="M8248 6013 c6 -2 18 -2 25 0 6 3 1 5 -13 5 -14 0 -19 -2 -12 -5z"/>
<path d="M705 5987 c-4 -10 -5 -21 -1 -24 10 -10 18 4 13 24 -4 17 -4 17 -12
0z"/>
<path d="M169 5976 c16 -19 44 -21 39 -3 -3 6 -15 14 -28 15 -21 3 -22 2 -11
-12z"/>
<path d="M300 5980 c0 -5 5 -10 10 -10 6 0 10 5 10 10 0 6 -4 10 -10 10 -5 0
-10 -4 -10 -10z"/>
<path d="M80 5970 c0 -5 5 -10 11 -10 5 0 7 5 4 10 -3 6 -8 10 -11 10 -2 0 -4
-4 -4 -10z"/>
<path d="M1080 5966 c0 -2 9 -6 20 -9 11 -3 18 -1 14 4 -5 9 -34 13 -34 5z"/>
<path d="M8410 5960 c0 -5 5 -10 10 -10 6 0 10 5 10 10 0 6 -4 10 -10 10 -5 0
-10 -4 -10 -10z"/>
<path d="M233 5924 c-3 -8 -1 -20 4 -25 12 -12 48 14 39 29 -10 17 -36 15 -43
-4z"/>
<path d="M0 5920 c0 -5 7 -10 15 -10 8 0 15 5 15 10 0 6 -7 10 -15 10 -8 0
-15 -4 -15 -10z"/>
<path d="M8612 5910 c0 -14 2 -19 5 -12 2 6 2 18 0 25 -3 6 -5 1 -5 -13z"/>
<path d="M180 5870 c0 -5 7 -10 15 -10 8 0 15 5 15 10 0 6 -7 10 -15 10 -8 0
-15 -4 -15 -10z"/>
<path d="M968 5873 c7 -3 16 -2 19 1 4 3 -2 6 -13 5 -11 0 -14 -3 -6 -6z"/>
<path d="M1068 5873 c6 -2 18 -2 25 0 6 3 1 5 -13 5 -14 0 -19 -2 -12 -5z"/>
<path d="M1120 5869 c0 -5 5 -7 10 -4 6 3 10 8 10 11 0 2 -4 4 -10 4 -5 0 -10
-5 -10 -11z"/>
<path d="M480 5854 c0 -8 5 -12 10 -9 6 4 8 11 5 16 -9 14 -15 11 -15 -7z"/>
<path d="M1031 5844 c0 -11 3 -14 6 -6 3 7 2 16 -1 19 -3 4 -6 -2 -5 -13z"/>
<path d="M670 5840 c0 -5 9 -10 20 -10 11 0 20 5 20 10 0 6 -9 10 -20 10 -11
0 -20 -4 -20 -10z"/>
<path d="M80 5830 c0 -5 5 -10 10 -10 6 0 10 5 10 10 0 6 -4 10 -10 10 -5 0
-10 -4 -10 -10z"/>
<path d="M58 5803 c7 -3 16 -2 19 1 4 3 -2 6 -13 5 -11 0 -14 -3 -6 -6z"/>
<path d="M1024 5766 c-8 -22 3 -33 18 -18 9 9 9 15 0 24 -9 9 -13 7 -18 -6z"/>
<path d="M320 5742 c0 -25 0 -25 23 -6 12 10 23 19 25 20 2 1 -9 4 -23 6 -21
5 -25 2 -25 -20z"/>
<path d="M502 5743 c5 -25 28 -28 28 -4 0 12 -6 21 -16 21 -9 0 -14 -7 -12
-17z"/>
<path d="M3584 5729 c-7 -13 13 -29 37 -29 23 0 30 11 18 27 -14 16 -45 17
-55 2z"/>
<path d="M3515 5690 c-3 -5 3 -10 15 -10 12 0 18 5 15 10 -3 6 -10 10 -15 10
-5 0 -12 -4 -15 -10z"/>
<path d="M0 5661 c0 -40 22 -51 101 -51 53 0 60 2 49 15 -8 10 -31 15 -66 15
-46 0 -53 3 -56 22 -5 35 -28 34 -28 -1z"/>
<path d="M3680 5679 c0 -5 5 -7 10 -4 6 3 10 8 10 11 0 2 -4 4 -10 4 -5 0 -10
-5 -10 -11z"/>
<path d="M733 5663 c-22 -8 -15 -32 7 -26 20 5 26 18 13 26 -5 2 -14 2 -20 0z"/>
<path d="M320 5650 c0 -5 5 -10 11 -10 5 0 7 5 4 10 -3 6 -8 10 -11 10 -2 0
-4 -4 -4 -10z"/>
<path d="M1740 5630 c0 -13 28 -25 38 -16 3 4 0 11 -8 16 -20 13 -30 12 -30 0z"/>
<path d="M3300 5620 c0 -11 5 -20 10 -20 6 0 10 9 10 20 0 11 -4 20 -10 20 -5
0 -10 -9 -10 -20z"/>
<path d="M1426 5621 c-4 -7 -5 -15 -2 -18 9 -9 19 4 14 18 -4 11 -6 11 -12 0z"/>
<path d="M695 5610 c3 -5 10 -10 16 -10 5 0 9 5 9 10 0 6 -7 10 -16 10 -8 0
-12 -4 -9 -10z"/>
<path d="M2560 5610 c0 -5 5 -10 10 -10 6 0 10 5 10 10 0 6 -4 10 -10 10 -5 0
-10 -4 -10 -10z"/>
<path d="M160 5585 c0 -11 11 -15 40 -15 29 0 40 4 40 15 0 11 -11 15 -40 15
-29 0 -40 -4 -40 -15z"/>
<path d="M322 5588 c8 -22 37 -34 55 -22 33 21 26 34 -17 34 -28 0 -40 -4 -38
-12z"/>
<path d="M1666 5592 c-2 -4 -1 -14 5 -22 7 -12 9 -10 9 8 0 23 -5 28 -14 14z"/>
<path d="M1870 5575 c0 -8 4 -15 10 -15 5 0 7 7 4 15 -4 8 -8 15 -10 15 -2 0
-4 -7 -4 -15z"/>
<path d="M1250 5565 c0 -8 4 -15 10 -15 5 0 7 7 4 15 -4 8 -8 15 -10 15 -2 0
-4 -7 -4 -15z"/>
<path d="M9848 5563 c7 -3 16 -2 19 1 4 3 -2 6 -13 5 -11 0 -14 -3 -6 -6z"/>
<path d="M0 5546 c0 -10 9 -16 21 -16 24 0 21 23 -4 28 -10 2 -17 -3 -17 -12z"/>
<path d="M535 5546 c-26 -19 -1 -40 46 -38 65 3 81 10 68 30 -13 20 -91 25
-114 8z"/>
<path d="M480 5540 c0 -5 5 -10 11 -10 5 0 7 5 4 10 -3 6 -8 10 -11 10 -2 0
-4 -4 -4 -10z"/>
<path d="M1520 5511 c0 -5 6 -11 13 -13 17 -7 38 2 31 13 -7 12 -44 12 -44 0z"/>
<path d="M1310 5490 c0 -11 7 -20 15 -20 8 0 15 9 15 20 0 11 -7 20 -15 20 -8
0 -15 -9 -15 -20z"/>
<path d="M715 5491 c-2 -5 4 -11 15 -14 11 -3 20 -2 20 3 0 12 -28 21 -35 11z"/>
<path d="M317 5484 c-15 -16 8 -34 44 -34 32 0 39 3 39 20 0 17 -7 20 -38 20
-21 0 -41 -3 -45 -6z"/>
<path d="M1810 5466 c0 -25 12 -46 26 -46 16 0 16 5 8 38 -7 24 -34 31 -34 8z"/>
<path d="M1385 5440 c-9 -14 27 -59 47 -60 30 0 32 22 4 47 -30 25 -42 28 -51
13z"/>
<path d="M1220 5404 c0 -23 1 -24 16 -10 8 9 12 20 9 26 -12 19 -25 10 -25
-16z"/>
<path d="M1540 5415 c0 -8 7 -15 15 -15 8 0 15 7 15 15 0 8 -7 15 -15 15 -8 0
-15 -7 -15 -15z"/>
<path d="M1936 5421 c-10 -16 5 -41 24 -41 28 0 36 21 15 37 -22 15 -32 16
-39 4z"/>
<path d="M2320 5406 c0 -22 3 -27 11 -19 8 8 8 16 0 30 -9 16 -10 14 -11 -11z"/>
<path d="M960 5394 c0 -8 5 -12 10 -9 6 3 10 10 10 16 0 5 -4 9 -10 9 -5 0
-10 -7 -10 -16z"/>
<path d="M2105 5400 c-3 -5 1 -10 9 -10 9 0 16 5 16 10 0 6 -4 10 -9 10 -6 0
-13 -4 -16 -10z"/>
<path d="M1317 5383 c-21 -20 -2 -83 24 -83 23 0 24 21 4 60 -17 32 -18 33
-28 23z"/>
<path d="M828 5350 c-3 -20 0 -30 9 -30 7 0 13 -4 13 -10 0 -11 30 -13 54 -4
17 7 22 34 7 34 -5 0 -16 6 -23 14 -8 7 -23 16 -35 20 -17 6 -21 2 -25 -24z"/>
<path d="M1590 5366 c0 -9 5 -16 10 -16 6 0 10 4 10 9 0 6 -4 13 -10 16 -5 3
-10 -1 -10 -9z"/>
<path d="M2560 5365 c0 -17 2 -18 24 -9 23 9 20 24 -4 24 -11 0 -20 -7 -20
-15z"/>
<path d="M1485 5359 c-4 -5 0 -18 9 -28 21 -23 20 -30 -5 -57 -12 -12 -18 -27
-14 -33 7 -12 46 -15 44 -3 -4 21 3 30 27 36 31 8 29 40 -4 44 -16 3 -22 10
-22 28 0 25 -23 33 -35 13z"/>
<path d="M2260 5346 c-14 -18 -6 -50 13 -44 15 6 22 37 10 49 -6 6 -15 4 -23
-5z"/>
<path d="M10346 5351 c-8 -12 3 -41 15 -41 5 0 9 11 9 25 0 25 -14 34 -24 16z"/>
<path d="M1440 5301 c0 -12 5 -21 10 -21 6 0 10 6 10 14 0 8 -4 18 -10 21 -5
3 -10 -3 -10 -14z"/>
<path d="M1640 5300 c0 -20 35 -29 42 -11 2 5 56 11 121 13 64 2 117 6 117 10
0 5 -63 8 -140 8 -133 0 -140 -1 -140 -20z"/>
<path d="M2013 5313 c9 -2 23 -2 30 0 6 3 -1 5 -18 5 -16 0 -22 -2 -12 -5z"/>
<path d="M2098 5289 c-28 -16 -23 -49 6 -49 25 0 43 30 31 50 -8 12 -15 12
-37 -1z"/>
<path d="M1932 5283 c-10 -4 -10 -8 -1 -19 16 -19 41 -18 37 3 -3 18 -16 24
-36 16z"/>
<path d="M1030 5272 c0 -4 17 -6 38 -4 58 5 62 10 10 11 -27 1 -48 -3 -48 -7z"/>
<path d="M2320 5264 c0 -8 5 -12 10 -9 6 3 10 10 10 16 0 5 -4 9 -10 9 -5 0
-10 -7 -10 -16z"/>
<path d="M2171 5227 c-6 -8 -17 -29 -26 -48 -8 -19 -21 -42 -28 -52 -10 -15
-9 -20 4 -27 9 -6 20 -21 23 -34 5 -22 8 -23 31 -13 22 10 25 17 20 43 -3 17
1 46 9 65 29 72 30 79 3 79 -14 0 -30 -6 -36 -13z"/>
<path d="M2315 5230 c3 -5 8 -10 11 -10 2 0 4 5 4 10 0 6 -5 10 -11 10 -5 0
-7 -4 -4 -10z"/>
<path d="M2568 5233 c7 -3 16 -2 19 1 4 3 -2 6 -13 5 -11 0 -14 -3 -6 -6z"/>
<path d="M10436 5231 c-4 -5 -2 -12 3 -15 5 -4 12 -2 15 3 4 5 2 12 -3 15 -5
4 -12 2 -15 -3z"/>
<path d="M1277 5216 c-7 -18 1 -26 25 -26 21 0 23 11 6 28 -16 16 -25 15 -31
-2z"/>
<path d="M2020 5215 c-9 -11 -9 -21 -1 -40 6 -14 14 -26 18 -26 9 -2 41 51 42
69 1 17 -44 15 -59 -3z"/>
<path d="M1433 5205 c-7 -7 -31 -16 -54 -20 -29 -5 -38 -10 -28 -16 26 -16 65
-9 87 16 22 25 17 44 -5 20z"/>
<path d="M1940 5173 c0 -5 5 -15 10 -23 9 -13 11 -13 20 0 15 22 12 30 -10 30
-11 0 -20 -3 -20 -7z"/>
<path d="M10660 5131 c0 -36 11 -45 35 -27 15 11 16 15 4 34 -20 31 -39 27
-39 -7z"/>
<path d="M1913 5123 c-18 -6 -16 -61 1 -79 23 -23 36 -16 36 19 0 37 -19 67
-37 60z"/>
<path d="M10906 5022 c-3 -6 -1 -14 5 -17 15 -10 25 3 12 16 -7 7 -13 7 -17 1z"/>
<path d="M1860 4990 c14 -4 34 -8 45 -9 16 -1 17 1 5 9 -8 5 -28 9 -45 9 -29
-1 -29 -1 -5 -9z"/>
<path d="M11177 4363 c-16 -15 -6 -33 18 -33 18 0 25 5 25 20 0 20 -28 28 -43
13z"/>
<path d="M11019 4049 c-9 -17 -8 -25 5 -37 15 -15 16 -13 16 21 0 42 -5 46
-21 16z"/>
<path d="M10635 3830 c-3 -5 1 -10 10 -10 9 0 13 5 10 10 -3 6 -8 10 -10 10
-2 0 -7 -4 -10 -10z"/>
<path d="M10570 3784 c0 -17 22 -14 28 4 2 7 -3 12 -12 12 -9 0 -16 -7 -16
-16z"/>
<path d="M10490 3705 c-13 -16 -7 -45 9 -45 11 0 31 32 31 49 0 16 -26 13 -40
-4z"/>
<path d="M10635 3600 c-3 -5 -1 -10 4 -10 6 0 11 5 11 10 0 6 -2 10 -4 10 -3
0 -8 -4 -11 -10z"/>
<path d="M10690 3594 c0 -17 22 -14 28 4 2 7 -3 12 -12 12 -9 0 -16 -7 -16
-16z"/>
<path d="M10940 3471 c0 -5 7 -11 14 -14 10 -4 13 -1 9 9 -6 15 -23 19 -23 5z"/>
<path d="M10960 3420 c0 -5 5 -10 10 -10 6 0 10 5 10 10 0 6 -4 10 -10 10 -5
0 -10 -4 -10 -10z"/>
<path d="M11027 3413 c-10 -9 -8 -43 2 -43 5 0 14 7 21 15 17 21 -4 48 -23 28z"/>
<path d="M11080 3381 c0 -5 5 -13 10 -16 6 -3 10 -2 10 4 0 5 -4 13 -10 16 -5
3 -10 2 -10 -4z"/>
<path d="M11200 3175 c0 -9 9 -15 25 -15 16 0 25 6 25 15 0 9 -9 15 -25 15
-16 0 -25 -6 -25 -15z"/>
<path d="M66 3003 c-9 -9 -7 -33 3 -33 12 0 22 28 12 34 -5 3 -11 3 -15 -1z"/>
<path d="M65 2930 c-3 -5 -1 -10 4 -10 6 0 11 5 11 10 0 6 -2 10 -4 10 -3 0
-8 -4 -11 -10z"/>
<path d="M7940 2930 c0 -5 5 -10 11 -10 5 0 7 5 4 10 -3 6 -8 10 -11 10 -2 0
-4 -4 -4 -10z"/>
<path d="M1064 2904 c-7 -3 -10 -13 -7 -23 3 -12 -8 -33 -32 -59 -35 -39 -35
-41 -14 -47 27 -9 79 44 79 82 0 16 7 27 20 30 11 3 20 9 20 14 0 9 -46 11
-66 3z"/>
<path d="M3360 2799 c0 -18 2 -19 15 -9 8 7 15 16 15 21 0 5 -7 9 -15 9 -9 0
-15 -9 -15 -21z"/>
<path d="M7690 2720 c0 -11 7 -20 15 -20 17 0 18 2 9 24 -9 23 -24 20 -24 -4z"/>
<path d="M1919 2613 c-1 -4 0 -22 1 -40 1 -29 -2 -32 -32 -36 l-33 -4 37 -1
c32 -2 38 2 43 21 10 47 10 60 -2 64 -7 3 -13 1 -14 -4z"/>
<path d="M8045 2600 c3 -5 8 -10 11 -10 2 0 4 5 4 10 0 6 -5 10 -11 10 -5 0
-7 -4 -4 -10z"/>
<path d="M1771 2587 c-14 -18 -4 -27 29 -27 15 0 30 3 33 7 10 10 -13 33 -33
33 -10 0 -23 -6 -29 -13z"/>
<path d="M1994 2585 c3 -9 6 -19 6 -21 0 -2 9 -4 21 -4 29 0 21 34 -10 38 -19
3 -22 0 -17 -13z"/>
<path d="M8960 2589 c0 -5 5 -7 10 -4 6 3 10 8 10 11 0 2 -4 4 -10 4 -5 0 -10
-5 -10 -11z"/>
<path d="M2217 2583 c-16 -3 -26 -10 -24 -16 4 -14 94 -34 104 -23 8 8 -33 47
-46 45 -3 -1 -19 -4 -34 -6z"/>
<path d="M2688 2578 c-9 -26 5 -47 36 -54 17 -3 36 -11 43 -16 7 -6 14 -5 18
2 3 5 14 10 25 10 10 0 20 7 24 15 3 9 18 15 35 15 16 0 31 -6 35 -15 6 -16
56 -21 56 -6 0 27 -120 75 -134 53 -5 -8 -49 -7 -102 4 -22 4 -33 2 -36 -8z"/>
<path d="M2086 2554 c-9 -25 -7 -31 12 -36 15 -4 18 -1 14 19 -6 29 -18 38
-26 17z"/>
<path d="M2362 2558 c3 -9 25 -13 66 -13 82 0 75 19 -7 23 -48 2 -62 0 -59
-10z"/>
<path d="M9012 2279 c5 -16 56 -44 65 -35 9 9 -35 45 -55 46 -8 0 -12 -5 -10
-11z"/>
<path d="M8828 2233 c7 -3 16 -2 19 1 4 3 -2 6 -13 5 -11 0 -14 -3 -6 -6z"/>
<path d="M5215 2030 c-4 -6 5 -10 20 -10 15 0 24 4 20 10 -3 6 -12 10 -20 10
-8 0 -17 -4 -20 -10z"/>
<path d="M5420 1960 c0 -5 5 -10 11 -10 5 0 7 5 4 10 -3 6 -8 10 -11 10 -2 0
-4 -4 -4 -10z"/>
<path d="M7085 1939 l-20 -21 35 5 c19 3 37 6 39 6 6 2 -21 31 -28 30 -3 0
-15 -9 -26 -20z"/>
<path d="M470 1840 c0 -5 4 -10 9 -10 6 0 13 5 16 10 3 6 -1 10 -9 10 -9 0
-16 -4 -16 -10z"/>
<path d="M1496 1843 c-12 -12 -5 -23 14 -23 11 0 20 4 20 9 0 11 -26 22 -34
14z"/>
<path d="M1592 1831 c-10 -6 -6 -10 15 -14 33 -6 51 2 32 14 -18 11 -30 11
-47 0z"/>
<path d="M1270 1813 c0 -10 4 -14 8 -8 4 6 11 13 16 18 5 4 2 7 -7 7 -10 0
-17 -8 -17 -17z"/>
<path d="M1405 1810 c-4 -6 3 -10 14 -10 25 0 27 6 6 13 -8 4 -17 2 -20 -3z"/>
<path d="M290 1789 c0 -5 5 -7 10 -4 6 3 10 8 10 11 0 2 -4 4 -10 4 -5 0 -10
-5 -10 -11z"/>
<path d="M0 1651 c0 -6 5 -13 10 -16 5 -3 10 1 10 9 0 9 -4 16 -10 16 -5 0
-10 -4 -10 -9z"/>
<path d="M9586 1331 c-3 -5 1 -14 9 -21 13 -10 15 -9 15 9 0 21 -14 28 -24 12z"/>
<path d="M9674 1323 c-12 -2 -30 -13 -40 -24 -14 -16 -15 -23 -5 -45 6 -14 20
-28 31 -31 11 -3 20 -12 20 -20 0 -8 4 -12 9 -9 4 3 9 35 9 71 1 36 0 64 -1
64 -1 -1 -12 -4 -23 -6z"/>
<path d="M9640 1151 c0 -6 5 -13 10 -16 6 -3 10 1 10 9 0 9 -4 16 -10 16 -5 0
-10 -4 -10 -9z"/>
<path d="M255 990 c3 -5 8 -10 11 -10 2 0 4 5 4 10 0 6 -5 10 -11 10 -5 0 -7
-4 -4 -10z"/>
</g>
</svg>
